<svg aria-hidden="true" style="position: absolute; width: 0; height: 0; overflow: hidden;" version="1.1" xmlns="http://www.w3.org/2000/svg" xmlns:xlink="http://www.w3.org/1999/xlink">
<defs>

<symbol id="icon-exit" viewBox="0 0 32 32">
<path d="M24 20v-4h-10v-4h10v-4l6 6zM22 18v8h-10v6l-12-6v-26h22v10h-2v-8h-16l8 4v18h8v-6z"></path>
</symbol>

<symbol id="icon-delete" viewBox="0 0 32 32">
<path stroke-linejoin="round" stroke-linecap="round" stroke-miterlimit="4" stroke-width="1.5" d="M5.336 9.333h21.333M13.336 14.667v8M18.669 14.667v8M6.669 9.333l1.333 16c0 0.707 0.281 1.386 0.781 1.886s1.178 0.781 1.886 0.781h10.667c0.707 0 1.386-0.281 1.886-0.781s0.781-1.178 0.781-1.886l1.333-16M12.003 9.333v-4c0-0.354 0.14-0.693 0.39-0.943s0.589-0.391 0.943-0.391h5.333c0.354 0 0.693 0.14 0.943 0.391s0.39 0.589 0.39 0.943v4"></path>
</symbol>

<symbol id="icon-edit" viewBox="0 0 32 32">
<path stroke-linejoin="round" stroke-linecap="round" stroke-miterlimit="4" stroke-width="1.5" d="M9.336 9.333h-1.333c-0.707 0-1.386 0.281-1.886 0.781s-0.781 1.178-0.781 1.886v12c0 0.707 0.281 1.386 0.781 1.886s1.178 0.781 1.886 0.781h12c0.707 0 1.386-0.281 1.886-0.781s0.781-1.178 0.781-1.886v-1.333M21.336 6.667l4 4M27.183 8.78c0.525-0.525 0.82-1.237 0.82-1.98s-0.295-1.455-0.82-1.98c-0.525-0.525-1.237-0.82-1.98-0.82s-1.455 0.295-1.98 0.82l-11.22 11.18v4h4l11.18-11.22z"></path>
</symbol>

<symbol id="icon-gluten-free" viewBox="0 0 68 32">
<path fill="#eeeff2" style="fill: var(--color1, #eeeff2)" d="M0.471 0.471h66.824v31.059h-66.824v-31.059z"></path>
<path fill="none" stroke="#141517" style="stroke: var(--color2, #141517)" stroke-linejoin="miter" stroke-linecap="butt" stroke-miterlimit="4" stroke-width="0.9412" d="M0.471 0.471h66.824v31.059h-66.824v-31.059z"></path>
<path fill="#141517" style="fill: var(--color2, #141517)" d="M42.158 27.294v-9.459h6.158v1.435h-4.444v2.539h4.114v1.416h-4.114v2.635h4.469v1.435h-6.184z"></path>
<path fill="#141517" style="fill: var(--color2, #141517)" d="M34.743 27.294v-9.459h6.158v1.435h-4.444v2.539h4.114v1.416h-4.114v2.635h4.469v1.435h-6.184z"></path>
<path fill="#141517" style="fill: var(--color2, #141517)" d="M26.769 27.294v-9.459h3.549c0.728 0 1.337 0.127 1.828 0.381 0.495 0.254 0.87 0.61 1.124 1.067 0.254 0.453 0.381 0.98 0.381 1.581 0 0.605-0.129 1.13-0.387 1.575-0.254 0.444-0.631 0.787-1.13 1.028s-1.113 0.362-1.841 0.362h-2.52v-1.416h2.285c0.427 0 0.777-0.059 1.048-0.178 0.275-0.119 0.476-0.292 0.603-0.521 0.131-0.233 0.197-0.516 0.197-0.851s-0.066-0.62-0.197-0.857c-0.131-0.241-0.332-0.423-0.603-0.546-0.271-0.127-0.622-0.19-1.054-0.19h-1.568v8.025h-1.714zM32.083 27.294l-2.292-4.292h1.866l2.343 4.292h-1.917z"></path>
<path fill="#141517" style="fill: var(--color2, #141517)" d="M19.633 27.294v-9.459h6.069v1.435h-4.355v2.838h3.93v1.416h-3.93v3.771h-1.714z"></path>
<path fill="#141517" style="fill: var(--color2, #141517)" d="M58.188 4.833v9.459h-1.536l-4.45-6.444h-0.082v6.444h-1.714v-9.459h1.536l4.45 6.444h0.083v-6.444h1.714z"></path>
<path fill="#141517" style="fill: var(--color2, #141517)" d="M42.989 14.292v-9.459h6.158v1.435h-4.444v2.539h4.114v1.416h-4.114v2.635h4.469v1.435h-6.184z"></path>
<path fill="#141517" style="fill: var(--color2, #141517)" d="M34.489 6.268v-1.435h7.542v1.435h-2.92v8.025h-1.695v-8.025h-2.927z"></path>
<path fill="#141517" style="fill: var(--color2, #141517)" d="M31.816 4.833h1.708v6.177c0 0.677-0.159 1.274-0.476 1.79-0.317 0.512-0.764 0.914-1.34 1.206-0.576 0.288-1.249 0.432-2.019 0.432s-1.443-0.144-2.019-0.432c-0.576-0.292-1.024-0.694-1.346-1.206-0.317-0.516-0.476-1.113-0.476-1.79v-6.177h1.714v6.037c0 0.398 0.087 0.749 0.26 1.054s0.419 0.546 0.736 0.724c0.322 0.174 0.698 0.26 1.13 0.26s0.806-0.087 1.124-0.26c0.317-0.178 0.563-0.419 0.736-0.724 0.178-0.305 0.267-0.656 0.267-1.054v-6.037z"></path>
<path fill="#141517" style="fill: var(--color2, #141517)" d="M18.979 14.292v-9.459h1.714v8.025h4.171v1.435h-5.885z"></path>
<path fill="#141517" style="fill: var(--color2, #141517)" d="M13.792 14.419c-0.868 0-1.632-0.197-2.292-0.59-0.656-0.394-1.168-0.952-1.536-1.676s-0.552-1.583-0.552-2.578c0-1.016 0.188-1.888 0.565-2.616 0.381-0.728 0.897-1.285 1.549-1.67 0.652-0.389 1.39-0.584 2.216-0.584 0.525 0 1.012 0.076 1.46 0.229 0.453 0.152 0.855 0.37 1.206 0.654 0.351 0.279 0.639 0.612 0.863 0.997 0.229 0.385 0.381 0.808 0.457 1.27h-1.746c-0.076-0.25-0.182-0.474-0.317-0.673-0.131-0.199-0.292-0.368-0.483-0.508-0.186-0.144-0.398-0.252-0.635-0.324s-0.499-0.108-0.787-0.108c-0.504 0-0.954 0.129-1.352 0.387-0.398 0.254-0.711 0.629-0.94 1.124-0.224 0.491-0.336 1.092-0.336 1.803 0 0.715 0.112 1.32 0.336 1.816s0.537 0.872 0.94 1.13c0.402 0.254 0.868 0.381 1.397 0.381 0.478 0 0.893-0.091 1.244-0.273 0.351-0.186 0.622-0.449 0.813-0.787s0.286-0.739 0.286-1.2l0.394 0.063h-2.571v-1.34h3.841v1.13c0 0.813-0.171 1.513-0.514 2.101s-0.819 1.043-1.428 1.365c-0.605 0.317-1.297 0.476-2.076 0.476z"></path>
</symbol>

<symbol id="icon-vegan" viewBox="0 0 68 32">
<path fill="#dad200" style="fill: var(--color3, #dad200)" d="M0 0h67.765v32h-67.765v-32z"></path>
<path fill="none" stroke="#003c00" style="stroke: var(--color4, #003c00)" stroke-linejoin="round" stroke-linecap="round" stroke-miterlimit="4" stroke-width="1.8824" d="M43.783 27.294c0.67-5.674 3.244-10.151 8.93-12.866M46.065 8.191c-2.643 2.159-3.703 5.151-3.712 8.473 0 1.329 0 3.986 2.821 6.644h4.251c3.855 0 7.182-0.844 9.761-2.773M61.865 17.746c1.727-2.487 2.803-5.892 3.076-10.383v-2.657h-5.662c-4.038 0-7.219 0.538-9.678 1.486"></path>
<path fill="#003c00" style="fill: var(--color4, #003c00)" d="M40.471 11.412v8.756h-1.422l-4.119-5.964h-0.076v5.964h-1.587v-8.756h1.422l4.119 5.964h0.076v-5.964h1.587z"></path>
<path fill="#003c00" style="fill: var(--color4, #003c00)" d="M26.133 20.167h-1.698l3.091-8.756h1.951l3.085 8.756h-1.692l-2.339-6.957h-0.070l-2.327 6.957zM26.191 16.736h4.613v1.269h-4.613v-1.269z"></path>
<path fill="#003c00" style="fill: var(--color4, #003c00)" d="M20.474 20.285c-0.803 0-1.51-0.182-2.121-0.546-0.607-0.364-1.081-0.881-1.422-1.551s-0.511-1.465-0.511-2.386c0-0.94 0.174-1.747 0.523-2.421 0.353-0.674 0.831-1.189 1.434-1.545 0.603-0.36 1.287-0.541 2.051-0.541 0.486 0 0.936 0.070 1.352 0.212 0.419 0.141 0.791 0.343 1.117 0.605 0.325 0.259 0.592 0.566 0.799 0.923 0.212 0.356 0.353 0.748 0.423 1.175h-1.616c-0.070-0.231-0.168-0.439-0.294-0.623-0.121-0.184-0.27-0.341-0.447-0.47-0.172-0.133-0.368-0.233-0.588-0.3s-0.462-0.1-0.729-0.1c-0.466 0-0.883 0.12-1.252 0.358-0.368 0.235-0.658 0.582-0.87 1.040-0.208 0.454-0.311 1.011-0.311 1.669 0 0.662 0.104 1.222 0.311 1.681s0.497 0.807 0.87 1.046c0.372 0.235 0.803 0.353 1.293 0.353 0.443 0 0.827-0.084 1.152-0.253 0.325-0.172 0.576-0.415 0.752-0.729s0.264-0.684 0.264-1.111l0.364 0.059h-2.38v-1.24h3.555v1.046c0 0.752-0.159 1.401-0.476 1.945s-0.758 0.966-1.322 1.263c-0.56 0.294-1.201 0.441-1.921 0.441z"></path>
<path fill="#003c00" style="fill: var(--color4, #003c00)" d="M9.773 20.167v-8.756h5.7v1.328h-4.113v2.351h3.808v1.31h-3.808v2.439h4.137v1.328h-5.723z"></path>
<path fill="#003c00" style="fill: var(--color4, #003c00)" d="M2.686 11.412l2.274 6.887h0.094l2.274-6.887h1.739l-3.085 8.756h-1.951l-3.091-8.756h1.745z"></path>
</symbol>

<symbol id="NovaPosht" viewBox="0 0 91 32">
<path fill="#ed1c24" style="fill: var(--color1, #ed1c24)" d="M39.756 5.428c0 0 0 0 1.885 0 0.687 0 1.033 0.339 1.033 1.105 0 0 0 0 0 2.714 0 0 0 0 3.692 0 0 0 0 0 0-2.714 0-0.766 0.341-1.105 1.115-1.105 0 0 0 0 1.802 0 0 0 0 0 0 1.784 0 0 0 0-0.769 0l-0.088 0.087c0 0 0-0 0 7.639 0 0 0 0-2.060 0 0 0 0 0 0-3.819 0 0 0 0-3.692 0 0 0 0 0 0 3.819 0 0 0 0-2.060 0 0 0 0 0 0-7.639 0 0 0-0.087-0.088-0.087 0 0 0 0-0.769 0 0 0 0 0 0-1.784z"></path>
<path fill="#ed1c24" style="fill: var(--color1, #ed1c24)" d="M54.688 5.258l0.046 0.005v1.959l-0.046-0.010c-1.544 0-2.747 1.275-2.747 2.889 0 1.696 1.203 3.054 2.747 3.054l0.046-0.010v1.959l-0.046 0.005c-2.747 0-4.977-2.205-4.977-5.007 0-2.719 2.23-4.842 4.977-4.842z"></path>
<path fill="#ed1c24" style="fill: var(--color1, #ed1c24)" d="M54.734 5.264l0.955 0.093c2.267 0.442 3.976 2.365 3.976 4.745 0 2.447-1.709 4.447-3.976 4.904l-0.955 0.098v-1.959l1.048-0.226c1.012-0.463 1.74-1.547 1.74-2.817 0-1.213-0.728-2.231-1.74-2.663l-1.048-0.216v-1.959z"></path>
<path fill="#ed1c24" style="fill: var(--color1, #ed1c24)" d="M60.094 5.428c0 0 0 0 2.876 0h1.373v1.784h-0.129c-0.17 0-0.516 0-1.203 0 0 0 0 0 0 1.953 0 0 0 0 0.583 0h0.749v1.696h-0.439c-0.217 0-0.506 0-0.893 0 0 0 0 0 0 2.123 0 0.087 0 0.087 0.088 0.087 0 0 0 0 0.614 0h0.63v1.866h-0.181c-0.31 0-0.935 0-2.179 0-0.687 0-1.027-0.339-1.027-1.105v-6.621c0 0 0 0-0.862 0 0 0 0 0 0-1.784z"></path>
<path fill="#ed1c24" style="fill: var(--color1, #ed1c24)" d="M64.343 5.428h0.041c1.89 0 3.005 1.018 3.005 2.55 0 0.93-0.429 1.527-0.857 1.953 0.774 0.339 1.286 1.187 1.286 2.118 0 1.784-1.373 2.889-3.346 2.889 0 0 0 0-0.036 0h-0.093v-1.866h0.212c0.687 0 1.12-0.427 1.12-1.105s-0.434-1.105-1.12-1.105c0 0 0 0-0.191 0h-0.021v-1.696h0.041c0.604 0 0.945-0.427 0.945-1.018 0-0.596-0.341-0.936-0.945-0.936 0 0 0 0-0.021 0h-0.021v-1.784z"></path>
<path fill="#ed1c24" style="fill: var(--color1, #ed1c24)" d="M71.768 5.428c0 0 0 0 0.867 0h0.16v2.719c-0.083 0.17-0.171 0.422-0.171 0.679 0 0 0 0-0.687 1.953 0 0 0 0 0.728 0h0.129v1.779h-0.465c-0.263 0-0.563 0-0.904 0 0 0 0.001 0-0.604 1.532-0.17 0.591-0.511 0.848-1.197 0.848 0 0 0 0-1.291 0 0 0 0 0 0-1.866 0 0 0 0 0.429 0 0.175 0 0.175 0 0.258-0.087 0 0 0 0 2.747-7.557z"></path>
<path fill="#ed1c24" style="fill: var(--color1, #ed1c24)" d="M72.795 5.428h1.033c0 0 0 0 2.747 7.557 0.083 0.087 0.083 0.087 0.253 0.087 0 0 0 0 0.345 0 0 0 0 0 0 1.866 0 0 0 0-1.203 0-0.687 0-1.027-0.257-1.203-0.936 0 0 0 0-0.599-1.445 0 0 0 0-1.157 0h-0.217v-1.779h0.857c0 0 0 0-0.682-1.953 0-0.257-0.087-0.509-0.175-0.679v-2.719z"></path>
<path fill="#ed1c24" style="fill: var(--color1, #ed1c24)" d="M39.756 17.652c0 0 0 0 7.466 0 0.687 0 1.115 0.339 1.115 1.105 0 0 0 0 0 6.451 0 0.082 0 0.082 0.088 0.082 0 0 0 0 0.687 0 0 0 0 0 0 1.871 0 0 0 0-1.802 0-0.775 0-1.115-0.339-1.115-1.105 0 0 0 0 0-6.534 0 0 0-0.087-0.088-0.087 0 0 0 0-3.434 0 0 0 0 0 0 7.726 0 0 0 0-2.060 0 0 0 0 0 0-7.726 0 0 0 0-0.857 0 0 0 0 0 0-1.784z"></path>
<path fill="#ed1c24" style="fill: var(--color1, #ed1c24)" d="M54.517 17.482l0.041 0.005v1.959l-0.041-0.010c-1.549 0-2.747 1.275-2.747 2.889 0 1.696 1.198 3.054 2.747 3.054l0.041-0.010v1.959l-0.041 0.005c-2.747 0-4.895-2.21-4.895-5.007 0-2.719 2.148-4.842 4.895-4.842z"></path>
<path fill="#ed1c24" style="fill: var(--color1, #ed1c24)" d="M54.559 17.488l0.986 0.093c2.308 0.442 3.95 2.365 3.95 4.745 0 2.447-1.642 4.447-3.95 4.904l-0.986 0.098v-1.959l1.089-0.226c1.027-0.463 1.704-1.547 1.704-2.817 0-1.213-0.676-2.231-1.704-2.663l-1.089-0.216v-1.959z"></path>
<path fill="#ed1c24" style="fill: var(--color1, #ed1c24)" d="M59.923 17.652c0 0 0 0 1.89 0 0.687 0 1.027 0.339 1.027 1.105 0 0 0 0 0 6.451 0 0.082 0 0.082 0.088 0.082 0 0 0 0 2.489 0 0 0 0 0 0-7.639 0 0 0 0 2.060 0 0 0 0 0 0 7.639 0 0 0 0 2.489 0 0.087 0 0.087 0 0.087-0.082 0 0 0 0 0-6.451 0-0.766 0.341-1.105 1.028-1.105 0 0 0 0 1.889 0 0 0 0 0 0 1.784 0 0 0 0-0.775 0-0.087 0-0.087 0.087-0.087 0.087s0 0 0 6.534c0 0.766-0.341 1.105-1.027 1.105 0 0 0 0-9.186 0-0.769 0-1.115-0.339-1.115-1.105 0 0 0 0 0-6.534 0 0 0-0.087-0.083-0.087 0 0 0 0-0.774 0 0 0 0 0 0-1.784z"></path>
<path fill="#ed1c24" style="fill: var(--color1, #ed1c24)" d="M74.597 17.652c0 0 0 0 6.439 0 0.774 0 1.033 0.339 1.033 1.018 0 0 0 0 0 1.614h-1.89c0 0 0 0 0-0.761 0-0.087 0-0.087-0.088-0.087 0 0 0 0-1.197 0 0 0 0 0 0 7.726 0 0 0 0-2.065 0 0 0 0 0 0-7.726 0 0 0 0-1.198 0-0.088 0-0.088 0-0.088 0.087 0 0 0 0 0 0.761 0 0 0 0-1.889 0 0 0 0 0 0-1.614 0-0.679 0.258-1.018 0.945-1.018z"></path>
<path fill="#ed1c24" style="fill: var(--color1, #ed1c24)" d="M84.727 17.652c0 0 0 0 0.867 0h0.16v2.719c-0.087 0.17-0.17 0.421-0.17 0.679 0 0 0 0-0.687 1.953 0 0 0 0 0.723 0h0.134v1.779h-0.465c-0.263 0-0.563 0-0.909 0 0 0 0 0-0.599 1.444-0.171 0.679-0.517 0.936-1.203 0.936 0 0 0 0-1.285 0 0 0 0 0 0-1.871 0 0 0 0 0.429 0 0.175 0 0.175 0 0.258-0.082 0 0 0 0 2.747-7.557z"></path>
<path fill="#ed1c24" style="fill: var(--color1, #ed1c24)" d="M85.755 17.652h1.028c0 0 0 0 2.752 7.557 0.083 0.082 0.083 0.082 0.258 0.082h0.341c0 0 0 0 0 1.871 0 0 0 0-1.203 0-0.687 0-1.028-0.257-1.203-0.936 0 0 0 0-0.599-1.444 0 0 0 0-1.157 0h-0.217v-1.779h0.857c0 0 0 0-0.687-1.953 0-0.257-0.083-0.509-0.171-0.679v-2.719z"></path>
<path fill="#ed1c24" style="fill: var(--color1, #ed1c24)" d="M26.528 9.474c0.098-0.031 0.227 0.031 0.356 0.2 0 0 0 0 5.834 5.685 0.341 0.339 0.341 0.853 0 1.105 0 0 0 0-5.834 5.773-0.129 0.17-0.258 0.211-0.356 0.159s-0.16-0.2-0.16-0.416v-12.137c0-0.211 0.062-0.339 0.16-0.37z"></path>
<path fill="#ed1c24" style="fill: var(--color1, #ed1c24)" d="M16.547-0.001h0.413l0.398 0.165c0 0 0 0 6.005 5.942 0.258 0.339 0.17 0.596-0.258 0.596 0 0 0 0-2.489 0-0.429 0-0.769 0.339-0.769 0.766 0 0 0 0 0 4.411 0 0.427-0.346 0.766-0.862 0.766 0 0 0 0-4.373 0-0.429 0-0.774-0.339-0.774-0.766 0 0 0 0 0-4.411 0-0.427-0.341-0.766-0.774-0.766h-2.659c-0.429 0-0.516-0.257-0.258-0.596 0 0 0 0 6.010-5.942l0.392-0.165z"></path>
<path fill="#ed1c24" style="fill: var(--color1, #ed1c24)" d="M7.14 9.345c0.108 0.051 0.176 0.2 0.176 0.416v12.389c0 0.216-0.067 0.344-0.176 0.386-0.103 0.041-0.253 0-0.429-0.129 0 0 0 0-5.922-5.942-0.341-0.252-0.341-0.766 0-1.105 0 0 0 0 5.922-5.855 0.176-0.17 0.325-0.211 0.429-0.159z"></path>
<path fill="#ed1c24" style="fill: var(--color1, #ed1c24)" d="M14.611 19.096c0 0 0 0 4.373 0 0.516 0 0.862 0.339 0.862 0.766 0 0 0 0 0 4.668 0 0.509 0.341 0.848 0.769 0.848h2.318c0.429 0 0.599 0.252 0.258 0.509 0 0 0 0-5.834 5.855-0.176 0.17-0.387 0.257-0.604 0.257-0.212 0-0.429-0.087-0.599-0.257 0 0 0 0-5.834-5.855-0.346-0.257-0.176-0.509 0.253-0.509 0 0 0 0 2.489 0 0.434 0 0.774-0.339 0.774-0.848 0 0 0 0 0-4.668 0-0.427 0.346-0.766 0.775-0.766z"></path>
</symbol>

<symbol id="icon-call" viewBox="0 0 32 32">
<path stroke-linejoin="round" stroke-linecap="round" stroke-miterlimit="4" stroke-width="2.6667" d="M20 9.333c0.707 0 1.385 0.281 1.886 0.781s0.781 1.178 0.781 1.886M20 4c2.122 0 4.157 0.843 5.657 2.343s2.343 3.535 2.343 5.657M6.667 5.333h5.333l2.667 6.667-3.333 2c1.428 2.895 3.771 5.239 6.667 6.667l2-3.333 6.667 2.667v5.333c0 0.707-0.281 1.385-0.781 1.886s-1.178 0.781-1.886 0.781c-5.201-0.316-10.106-2.525-13.791-6.209s-5.893-8.59-6.209-13.791c0-0.707 0.281-1.386 0.781-1.886s1.178-0.781 1.886-0.781z"></path>
</symbol>

<symbol id="icon-cart_24" viewBox="0 0 32 32">
<path fill="none" stroke="#eef4f6" style="stroke: var(--color1, #eef4f6)" stroke-linejoin="round" stroke-linecap="round" stroke-miterlimit="4" stroke-width="2.6667" d="M8 22.667c0.707 0 1.386 0.281 1.886 0.781s0.781 1.178 0.781 1.886c0 0.707-0.281 1.385-0.781 1.886s-1.178 0.781-1.886 0.781c-0.707 0-1.386-0.281-1.886-0.781s-0.781-1.178-0.781-1.886c0-0.707 0.281-1.385 0.781-1.886s1.178-0.781 1.886-0.781zM8 22.667h14.667M8 22.667v-18.667h-2.667M22.667 22.667c0.707 0 1.385 0.281 1.886 0.781s0.781 1.178 0.781 1.886c0 0.707-0.281 1.385-0.781 1.886s-1.178 0.781-1.886 0.781c-0.707 0-1.385-0.281-1.886-0.781s-0.781-1.178-0.781-1.886c0-0.707 0.281-1.385 0.781-1.886s1.178-0.781 1.886-0.781zM8 6.667l18.667 1.333-1.333 9.333h-17.333"></path>
</symbol>

<symbol id="icon-close_mini" viewBox="0 0 32 32">
<path stroke-linejoin="round" stroke-linecap="round" stroke-miterlimit="4" stroke-width="2.6667" d="M8.458 22.667l15.085-15.085M8.458 8l15.085 15.085"></path>
</symbol>

<symbol id="icon-cookie" viewBox="0 0 32 32">
<path stroke-linejoin="round" stroke-linecap="round" stroke-miterlimit="4" stroke-width="2" d="M10.666 17.333v0.013M16 22.667v0.013M16 16v0.013M21.333 18.667v0.013M14.666 10.667v0.013M17.53 4.635l3.556 1.472c-0.705 0.927-1.087 2.060-1.087 3.224s0.38 2.298 1.084 3.226 1.692 1.6 2.814 1.914c1.122 0.314 2.315 0.252 3.398-0.177l0.071 0.176c0.406 0.98 0.406 2.081 0 3.061-0.662 1.049-1.117 1.872-1.365 2.469-0.252 0.608-0.545 1.593-0.88 2.955-0.406 0.98-1.185 1.758-2.165 2.164-1.397 0.35-2.382 0.644-2.955 0.881-0.633 0.262-1.456 0.717-2.469 1.365-0.98 0.406-2.081 0.406-3.061 0-1.069-0.67-1.892-1.125-2.469-1.365-0.629-0.26-1.613-0.553-2.955-0.88-0.98-0.406-1.758-1.185-2.164-2.165-0.353-1.402-0.647-2.387-0.881-2.955-0.265-0.638-0.72-1.461-1.365-2.469-0.406-0.98-0.406-2.081 0-3.061 0.639-0.992 1.094-1.815 1.365-2.469 0.228-0.551 0.522-1.536 0.88-2.955 0.406-0.98 1.185-1.758 2.165-2.164 1.375-0.341 2.36-0.635 2.955-0.881 0.611-0.253 1.434-0.708 2.469-1.365 0.98-0.406 2.081-0.406 3.061 0z"></path>
</symbol>

<symbol id="icon-error" viewBox="0 0 32 32">
<path fill="#d70606" style="fill: var(--color2, #d70606)" d="M22.667 4.453c2.027 1.17 3.71 2.853 4.88 4.88s1.786 4.326 1.786 6.667c0 2.341-0.616 4.64-1.786 6.667s-2.853 3.71-4.88 4.88-4.326 1.786-6.667 1.786c-2.34-0-4.64-0.616-6.667-1.787s-3.71-2.853-4.88-4.88c-1.17-2.027-1.786-4.326-1.786-6.667l0.007-0.432c0.075-2.303 0.745-4.547 1.945-6.513s2.889-3.589 4.903-4.708c2.014-1.119 4.283-1.698 6.587-1.679s4.563 0.634 6.559 1.786zM16 20c-0.354 0-0.693 0.141-0.943 0.391s-0.391 0.589-0.391 0.943v0.013c0 0.354 0.141 0.693 0.391 0.943s0.589 0.391 0.943 0.391 0.693-0.14 0.943-0.391c0.25-0.25 0.391-0.589 0.391-0.943v-0.013c0-0.354-0.141-0.693-0.391-0.943s-0.589-0.391-0.943-0.391zM16 10.667c-0.354 0-0.693 0.14-0.943 0.391s-0.391 0.589-0.391 0.943v5.333c0 0.354 0.141 0.693 0.391 0.943s0.589 0.391 0.943 0.391 0.693-0.14 0.943-0.391c0.25-0.25 0.391-0.589 0.391-0.943v-5.333c0-0.354-0.141-0.693-0.391-0.943s-0.589-0.391-0.943-0.391z"></path>
</symbol>

<symbol id="icon-instagram" viewBox="0 0 32 32">
<path stroke-linejoin="round" stroke-linecap="round" stroke-miterlimit="4" stroke-width="2.6667" d="M22 10v0.013M5.333 10.667c0-1.415 0.562-2.771 1.562-3.771s2.357-1.562 3.771-1.562h10.667c1.415 0 2.771 0.562 3.771 1.562s1.562 2.357 1.562 3.771v10.667c0 1.415-0.562 2.771-1.562 3.771s-2.357 1.562-3.771 1.562h-10.667c-1.415 0-2.771-0.562-3.771-1.562s-1.562-2.357-1.562-3.771v-10.667zM12 16c0 1.061 0.421 2.078 1.172 2.828s1.768 1.172 2.828 1.172c1.061 0 2.078-0.421 2.828-1.172s1.172-1.768 1.172-2.828c0-1.061-0.421-2.078-1.172-2.828s-1.768-1.172-2.828-1.172c-1.061 0-2.078 0.421-2.828 1.172s-1.172 1.768-1.172 2.828z"></path>
</symbol>

<symbol id="icon-Logo" viewBox="0 0 65 32">
<path d="M61.351 22.284c0.032-0.16 0.048-0.379 0.048-0.656 0-0.16-0.011-0.315-0.032-0.464-0.021-0.16-0.059-0.299-0.112-0.416-0.053-0.128-0.133-0.224-0.24-0.288-0.107-0.075-0.245-0.112-0.416-0.112-0.192 0-0.368 0.043-0.528 0.128s-0.304 0.197-0.432 0.336c-0.117 0.128-0.213 0.283-0.288 0.464-0.064 0.171-0.096 0.352-0.096 0.544 0 0.277 0.069 0.491 0.208 0.64 0.149 0.149 0.341 0.272 0.576 0.368s0.501 0.176 0.8 0.24c0.299 0.064 0.608 0.139 0.928 0.224 0.267 0.075 0.533 0.171 0.8 0.288s0.501 0.277 0.704 0.48c0.213 0.192 0.384 0.448 0.512 0.768 0.128 0.309 0.192 0.699 0.192 1.168 0 0.672-0.133 1.237-0.4 1.696s-0.635 0.832-1.104 1.12c-0.469 0.288-1.029 0.496-1.68 0.624-0.64 0.128-1.339 0.192-2.096 0.192-0.768 0-1.397-0.048-1.888-0.144-0.48-0.107-0.859-0.219-1.136-0.336-0.331-0.139-0.576-0.299-0.736-0.48l0.544-2.192h2.816c-0.011 0.096-0.021 0.229-0.032 0.4-0.011 0.16-0.016 0.288-0.016 0.384 0 0.128 0.016 0.261 0.048 0.4s0.080 0.267 0.144 0.384c0.075 0.117 0.176 0.213 0.304 0.288s0.288 0.112 0.48 0.112c0.213 0 0.4-0.048 0.56-0.144 0.171-0.096 0.309-0.213 0.416-0.352 0.117-0.149 0.203-0.309 0.256-0.48 0.064-0.181 0.096-0.357 0.096-0.528 0-0.235-0.059-0.432-0.176-0.592-0.107-0.16-0.256-0.293-0.448-0.4-0.192-0.117-0.416-0.213-0.672-0.288-0.245-0.085-0.501-0.171-0.768-0.256-0.256-0.075-0.528-0.165-0.816-0.272-0.277-0.107-0.533-0.256-0.768-0.448s-0.432-0.432-0.592-0.72c-0.149-0.299-0.224-0.677-0.224-1.136 0-0.683 0.171-1.253 0.512-1.712 0.352-0.469 0.789-0.848 1.312-1.136 0.533-0.288 1.115-0.491 1.744-0.608 0.629-0.128 1.227-0.192 1.792-0.192 0.747 0 1.387 0.091 1.92 0.272 0.544 0.171 0.955 0.373 1.232 0.608l-0.592 2.224h-2.656z"></path>
<path d="M49.238 19.34h6.736l-0.256 1.216h-3.264l-0.672 3.088h2.736l-0.256 1.2h-2.736l-0.736 3.424h3.264l-0.24 1.232h-6.736l2.16-10.16z"></path>
<path d="M45.315 29.5h-3.456l2.16-10.16h3.472l-2.176 10.16z"></path>
<path d="M36.813 23.756l3.952-4.432h1.808l-3.584 3.888 2.432 6.288h-3.488l-1.408-4.464-0.944 4.464h-3.456l2.16-10.16h3.472l-0.944 4.416z"></path>
<path d="M27.748 19.18c0.917 0 1.659 0.117 2.224 0.352 0.576 0.235 1.029 0.597 1.36 1.088 0.213 0.331 0.379 0.704 0.496 1.12s0.176 0.896 0.176 1.44c0 0.469-0.043 0.939-0.128 1.408s-0.208 0.923-0.368 1.36c-0.149 0.427-0.336 0.832-0.56 1.216-0.213 0.373-0.453 0.704-0.72 0.992-0.501 0.544-1.083 0.928-1.744 1.152-0.651 0.213-1.456 0.32-2.416 0.32-0.928 0-1.675-0.096-2.24-0.288s-1.013-0.501-1.344-0.928c-0.235-0.299-0.421-0.677-0.56-1.136-0.128-0.459-0.192-1.035-0.192-1.728 0-1.184 0.208-2.24 0.624-3.168 0.427-0.939 1.029-1.68 1.808-2.224 0.469-0.331 0.992-0.576 1.568-0.736s1.248-0.24 2.016-0.24zM25.94 28.508c0.245 0 0.475-0.107 0.688-0.32 0.224-0.224 0.427-0.517 0.608-0.88 0.192-0.373 0.363-0.795 0.512-1.264 0.16-0.469 0.293-0.955 0.4-1.456s0.187-0.997 0.24-1.488c0.064-0.501 0.096-0.955 0.096-1.36 0-0.555-0.059-0.933-0.176-1.136-0.107-0.213-0.267-0.32-0.48-0.32-0.245 0-0.48 0.107-0.704 0.32s-0.437 0.501-0.64 0.864c-0.192 0.352-0.368 0.763-0.528 1.232-0.149 0.459-0.283 0.933-0.4 1.424-0.107 0.491-0.192 0.976-0.256 1.456-0.053 0.48-0.080 0.923-0.080 1.328 0 0.608 0.064 1.029 0.192 1.264 0.139 0.224 0.315 0.336 0.528 0.336z"></path>
<path d="M16.795 19.18c0.917 0 1.659 0.117 2.224 0.352 0.576 0.235 1.029 0.597 1.36 1.088 0.213 0.331 0.379 0.704 0.496 1.12s0.176 0.896 0.176 1.44c0 0.469-0.043 0.939-0.128 1.408s-0.208 0.923-0.368 1.36c-0.149 0.427-0.336 0.832-0.56 1.216-0.213 0.373-0.453 0.704-0.72 0.992-0.501 0.544-1.083 0.928-1.744 1.152-0.651 0.213-1.456 0.32-2.416 0.32-0.928 0-1.675-0.096-2.24-0.288s-1.013-0.501-1.344-0.928c-0.235-0.299-0.421-0.677-0.56-1.136-0.128-0.459-0.192-1.035-0.192-1.728 0-1.184 0.208-2.24 0.624-3.168 0.427-0.939 1.029-1.68 1.808-2.224 0.469-0.331 0.992-0.576 1.568-0.736s1.248-0.24 2.016-0.24zM14.987 28.508c0.245 0 0.475-0.107 0.688-0.32 0.224-0.224 0.427-0.517 0.608-0.88 0.192-0.373 0.363-0.795 0.512-1.264 0.16-0.469 0.293-0.955 0.4-1.456s0.187-0.997 0.24-1.488c0.064-0.501 0.096-0.955 0.096-1.36 0-0.555-0.059-0.933-0.176-1.136-0.107-0.213-0.267-0.32-0.48-0.32-0.245 0-0.48 0.107-0.704 0.32s-0.437 0.501-0.64 0.864c-0.192 0.352-0.368 0.763-0.528 1.232-0.149 0.459-0.283 0.933-0.4 1.424-0.107 0.491-0.192 0.976-0.256 1.456-0.053 0.48-0.080 0.923-0.080 1.328 0 0.608 0.064 1.029 0.192 1.264 0.139 0.224 0.315 0.336 0.528 0.336z"></path>
<path d="M9.024 28.636c-0.267 0.128-0.544 0.256-0.832 0.384-0.277 0.117-0.576 0.224-0.896 0.32-0.32 0.085-0.672 0.155-1.056 0.208-0.373 0.053-0.784 0.080-1.232 0.080-1.429 0-2.533-0.32-3.312-0.96-0.768-0.64-1.152-1.707-1.152-3.2 0-0.864 0.133-1.675 0.4-2.432 0.267-0.768 0.661-1.435 1.184-2 0.523-0.576 1.168-1.029 1.936-1.36s1.648-0.496 2.64-0.496c0.469 0 0.896 0.032 1.28 0.096 0.395 0.064 0.747 0.149 1.056 0.256 0.32 0.096 0.603 0.203 0.848 0.32 0.256 0.117 0.485 0.229 0.688 0.336l-0.576 2.976h-2.88c0.011-0.107 0.021-0.245 0.032-0.416 0.021-0.171 0.037-0.341 0.048-0.512 0.011-0.181 0.021-0.357 0.032-0.528s0.016-0.315 0.016-0.432c0-0.085-0.005-0.181-0.016-0.288-0.011-0.117-0.037-0.229-0.080-0.336s-0.112-0.192-0.208-0.256c-0.085-0.075-0.203-0.112-0.352-0.112-0.277 0-0.533 0.117-0.768 0.352-0.224 0.224-0.427 0.528-0.608 0.912-0.181 0.373-0.341 0.8-0.48 1.28s-0.256 0.971-0.352 1.472c-0.085 0.491-0.155 0.976-0.208 1.456-0.043 0.48-0.064 0.901-0.064 1.264 0 0.107 0.005 0.24 0.016 0.4s0.043 0.315 0.096 0.464c0.053 0.149 0.133 0.277 0.24 0.384 0.117 0.107 0.272 0.16 0.464 0.16 0.331 0 0.651-0.203 0.96-0.608 0.309-0.416 0.581-1.152 0.816-2.208h2.96l-0.64 3.024z"></path>
<path d="M60.528 13.5h-3.744l-1.776-7.344-1.568 7.344h-1.44l2.16-10.16h3.824l1.68 7.44 1.584-7.44h1.472l-2.192 10.16z"></path>
<path d="M50.237 13.5h-3.456l2.16-10.16h3.472l-2.176 10.16z"></path>
<path d="M40.894 3.34h6.736l-0.256 1.216h-3.264l-0.672 3.088h2.736l-0.256 1.2h-2.736l-0.736 3.424h3.264l-0.24 1.232h-6.736l2.16-10.16z"></path>
<path d="M39.603 4.556h-2.576l-1.904 8.944h-3.456l1.904-8.944h-2.544l0.288-1.216h8.56l-0.272 1.216z"></path>
<path d="M26.123 3.18c0.917 0 1.659 0.117 2.224 0.352 0.576 0.235 1.029 0.597 1.36 1.088 0.213 0.331 0.379 0.704 0.496 1.12s0.176 0.896 0.176 1.44c0 0.469-0.043 0.939-0.128 1.408s-0.208 0.923-0.368 1.36c-0.149 0.427-0.336 0.832-0.56 1.216-0.213 0.373-0.453 0.704-0.72 0.992-0.501 0.544-1.083 0.928-1.744 1.152-0.651 0.213-1.456 0.32-2.416 0.32-0.928 0-1.675-0.096-2.24-0.288s-1.013-0.501-1.344-0.928c-0.235-0.299-0.421-0.677-0.56-1.136-0.128-0.459-0.192-1.035-0.192-1.728 0-1.184 0.208-2.24 0.624-3.168 0.427-0.939 1.029-1.68 1.808-2.224 0.469-0.331 0.992-0.576 1.568-0.736s1.248-0.24 2.016-0.24zM24.315 12.508c0.245 0 0.475-0.107 0.688-0.32 0.224-0.224 0.427-0.517 0.608-0.88 0.192-0.373 0.363-0.795 0.512-1.264 0.16-0.469 0.293-0.955 0.4-1.456s0.187-0.997 0.24-1.488c0.064-0.501 0.096-0.955 0.096-1.36 0-0.555-0.059-0.933-0.176-1.136-0.107-0.213-0.267-0.32-0.48-0.32-0.245 0-0.48 0.107-0.704 0.32s-0.437 0.501-0.64 0.864c-0.192 0.352-0.368 0.763-0.528 1.232-0.149 0.459-0.283 0.933-0.4 1.424-0.107 0.491-0.192 0.976-0.256 1.456-0.053 0.48-0.080 0.923-0.080 1.328 0 0.608 0.064 1.029 0.192 1.264 0.139 0.224 0.315 0.336 0.528 0.336z"></path>
<path d="M19.562 5.756c0 0.629-0.176 1.211-0.528 1.744s-0.933 0.939-1.744 1.216l1.856 4.784h-3.568l-1.408-4.432h-0.176l-0.944 4.432h-3.456l2.16-10.16h4.208c0.491 0 0.955 0.032 1.392 0.096 0.437 0.053 0.816 0.171 1.136 0.352 0.331 0.171 0.592 0.416 0.784 0.736 0.192 0.309 0.288 0.72 0.288 1.232zM14.954 8.044c0.277 0 0.512-0.091 0.704-0.272 0.203-0.192 0.363-0.421 0.48-0.688 0.128-0.267 0.219-0.549 0.272-0.848 0.053-0.309 0.080-0.576 0.080-0.8 0-0.277-0.048-0.512-0.144-0.704-0.096-0.203-0.304-0.304-0.624-0.304h-0.72l-0.8 3.616h0.752z"></path>
<path d="M5.136 9.116c0.32 0 0.587-0.133 0.8-0.4 0.224-0.267 0.405-0.592 0.544-0.976 0.149-0.384 0.256-0.784 0.32-1.2s0.096-0.779 0.096-1.088c0-0.288-0.048-0.528-0.144-0.72-0.096-0.203-0.304-0.304-0.624-0.304h-0.72l-1.008 4.688h0.736zM4.176 10.14l-0.72 3.36h-3.456l2.16-10.16h3.696c0.608 0 1.163 0.032 1.664 0.096s0.933 0.192 1.296 0.384c0.363 0.192 0.645 0.469 0.848 0.832 0.203 0.352 0.304 0.827 0.304 1.424 0 0.555-0.091 1.083-0.272 1.584-0.171 0.491-0.453 0.923-0.848 1.296-0.384 0.363-0.885 0.651-1.504 0.864s-1.371 0.32-2.256 0.32h-0.912z"></path>
</symbol>

<symbol id="icon-Logo-big1" viewBox="0 0 65 32">
<path fill="#fff" style="fill: var(--color1, #fff)" d="M61.351 22.284c0.032-0.16 0.048-0.379 0.048-0.656 0-0.16-0.011-0.315-0.032-0.464-0.021-0.16-0.059-0.299-0.112-0.416-0.053-0.128-0.133-0.224-0.24-0.288-0.107-0.075-0.245-0.112-0.416-0.112-0.192 0-0.368 0.043-0.528 0.128s-0.304 0.197-0.432 0.336c-0.117 0.128-0.213 0.283-0.288 0.464-0.064 0.171-0.096 0.352-0.096 0.544 0 0.277 0.069 0.491 0.208 0.64 0.149 0.149 0.341 0.272 0.576 0.368s0.501 0.176 0.8 0.24c0.299 0.064 0.608 0.139 0.928 0.224 0.267 0.075 0.533 0.171 0.8 0.288s0.501 0.277 0.704 0.48c0.213 0.192 0.384 0.448 0.512 0.768 0.128 0.309 0.192 0.699 0.192 1.168 0 0.672-0.133 1.237-0.4 1.696s-0.635 0.832-1.104 1.12c-0.469 0.288-1.029 0.496-1.68 0.624-0.64 0.128-1.339 0.192-2.096 0.192-0.768 0-1.397-0.048-1.888-0.144-0.48-0.107-0.859-0.219-1.136-0.336-0.331-0.139-0.576-0.299-0.736-0.48l0.544-2.192h2.816c-0.011 0.096-0.021 0.229-0.032 0.4-0.011 0.16-0.016 0.288-0.016 0.384 0 0.128 0.016 0.261 0.048 0.4s0.080 0.267 0.144 0.384c0.075 0.117 0.176 0.213 0.304 0.288s0.288 0.112 0.48 0.112c0.213 0 0.4-0.048 0.56-0.144 0.171-0.096 0.309-0.213 0.416-0.352 0.117-0.149 0.203-0.309 0.256-0.48 0.064-0.181 0.096-0.357 0.096-0.528 0-0.235-0.059-0.432-0.176-0.592-0.107-0.16-0.256-0.293-0.448-0.4-0.192-0.117-0.416-0.213-0.672-0.288-0.245-0.085-0.501-0.171-0.768-0.256-0.256-0.075-0.528-0.165-0.816-0.272-0.277-0.107-0.533-0.256-0.768-0.448s-0.432-0.432-0.592-0.72c-0.149-0.299-0.224-0.677-0.224-1.136 0-0.683 0.171-1.253 0.512-1.712 0.352-0.469 0.789-0.848 1.312-1.136 0.533-0.288 1.115-0.491 1.744-0.608 0.629-0.128 1.227-0.192 1.792-0.192 0.747 0 1.387 0.091 1.92 0.272 0.544 0.171 0.955 0.373 1.232 0.608l-0.592 2.224h-2.656z"></path>
<path fill="#fff" style="fill: var(--color1, #fff)" d="M49.238 19.34h6.736l-0.256 1.216h-3.264l-0.672 3.088h2.736l-0.256 1.2h-2.736l-0.736 3.424h3.264l-0.24 1.232h-6.736l2.16-10.16z"></path>
<path fill="#fff" style="fill: var(--color1, #fff)" d="M45.315 29.5h-3.456l2.16-10.16h3.472l-2.176 10.16z"></path>
<path fill="#fff" style="fill: var(--color1, #fff)" d="M36.813 23.756l3.952-4.432h1.808l-3.584 3.888 2.432 6.288h-3.488l-1.408-4.464-0.944 4.464h-3.456l2.16-10.16h3.472l-0.944 4.416z"></path>
<path fill="#fff" style="fill: var(--color1, #fff)" d="M27.748 19.18c0.917 0 1.659 0.117 2.224 0.352 0.576 0.235 1.029 0.597 1.36 1.088 0.213 0.331 0.379 0.704 0.496 1.12s0.176 0.896 0.176 1.44c0 0.469-0.043 0.939-0.128 1.408s-0.208 0.923-0.368 1.36c-0.149 0.427-0.336 0.832-0.56 1.216-0.213 0.373-0.453 0.704-0.72 0.992-0.501 0.544-1.083 0.928-1.744 1.152-0.651 0.213-1.456 0.32-2.416 0.32-0.928 0-1.675-0.096-2.24-0.288s-1.013-0.501-1.344-0.928c-0.235-0.299-0.421-0.677-0.56-1.136-0.128-0.459-0.192-1.035-0.192-1.728 0-1.184 0.208-2.24 0.624-3.168 0.427-0.939 1.029-1.68 1.808-2.224 0.469-0.331 0.992-0.576 1.568-0.736s1.248-0.24 2.016-0.24zM25.94 28.508c0.245 0 0.475-0.107 0.688-0.32 0.224-0.224 0.427-0.517 0.608-0.88 0.192-0.373 0.363-0.795 0.512-1.264 0.16-0.469 0.293-0.955 0.4-1.456s0.187-0.997 0.24-1.488c0.064-0.501 0.096-0.955 0.096-1.36 0-0.555-0.059-0.933-0.176-1.136-0.107-0.213-0.267-0.32-0.48-0.32-0.245 0-0.48 0.107-0.704 0.32s-0.437 0.501-0.64 0.864c-0.192 0.352-0.368 0.763-0.528 1.232-0.149 0.459-0.283 0.933-0.4 1.424-0.107 0.491-0.192 0.976-0.256 1.456-0.053 0.48-0.080 0.923-0.080 1.328 0 0.608 0.064 1.029 0.192 1.264 0.139 0.224 0.315 0.336 0.528 0.336z"></path>
<path fill="#fff" style="fill: var(--color1, #fff)" d="M16.795 19.18c0.917 0 1.659 0.117 2.224 0.352 0.576 0.235 1.029 0.597 1.36 1.088 0.213 0.331 0.379 0.704 0.496 1.12s0.176 0.896 0.176 1.44c0 0.469-0.043 0.939-0.128 1.408s-0.208 0.923-0.368 1.36c-0.149 0.427-0.336 0.832-0.56 1.216-0.213 0.373-0.453 0.704-0.72 0.992-0.501 0.544-1.083 0.928-1.744 1.152-0.651 0.213-1.456 0.32-2.416 0.32-0.928 0-1.675-0.096-2.24-0.288s-1.013-0.501-1.344-0.928c-0.235-0.299-0.421-0.677-0.56-1.136-0.128-0.459-0.192-1.035-0.192-1.728 0-1.184 0.208-2.24 0.624-3.168 0.427-0.939 1.029-1.68 1.808-2.224 0.469-0.331 0.992-0.576 1.568-0.736s1.248-0.24 2.016-0.24zM14.987 28.508c0.245 0 0.475-0.107 0.688-0.32 0.224-0.224 0.427-0.517 0.608-0.88 0.192-0.373 0.363-0.795 0.512-1.264 0.16-0.469 0.293-0.955 0.4-1.456s0.187-0.997 0.24-1.488c0.064-0.501 0.096-0.955 0.096-1.36 0-0.555-0.059-0.933-0.176-1.136-0.107-0.213-0.267-0.32-0.48-0.32-0.245 0-0.48 0.107-0.704 0.32s-0.437 0.501-0.64 0.864c-0.192 0.352-0.368 0.763-0.528 1.232-0.149 0.459-0.283 0.933-0.4 1.424-0.107 0.491-0.192 0.976-0.256 1.456-0.053 0.48-0.080 0.923-0.080 1.328 0 0.608 0.064 1.029 0.192 1.264 0.139 0.224 0.315 0.336 0.528 0.336z"></path>
<path fill="#fff" style="fill: var(--color1, #fff)" d="M9.024 28.636c-0.267 0.128-0.544 0.256-0.832 0.384-0.277 0.117-0.576 0.224-0.896 0.32-0.32 0.085-0.672 0.155-1.056 0.208-0.373 0.053-0.784 0.080-1.232 0.080-1.429 0-2.533-0.32-3.312-0.96-0.768-0.64-1.152-1.707-1.152-3.2 0-0.864 0.133-1.675 0.4-2.432 0.267-0.768 0.661-1.435 1.184-2 0.523-0.576 1.168-1.029 1.936-1.36s1.648-0.496 2.64-0.496c0.469 0 0.896 0.032 1.28 0.096 0.395 0.064 0.747 0.149 1.056 0.256 0.32 0.096 0.603 0.203 0.848 0.32 0.256 0.117 0.485 0.229 0.688 0.336l-0.576 2.976h-2.88c0.011-0.107 0.021-0.245 0.032-0.416 0.021-0.171 0.037-0.341 0.048-0.512 0.011-0.181 0.021-0.357 0.032-0.528s0.016-0.315 0.016-0.432c0-0.085-0.005-0.181-0.016-0.288-0.011-0.117-0.037-0.229-0.080-0.336s-0.112-0.192-0.208-0.256c-0.085-0.075-0.203-0.112-0.352-0.112-0.277 0-0.533 0.117-0.768 0.352-0.224 0.224-0.427 0.528-0.608 0.912-0.181 0.373-0.341 0.8-0.48 1.28s-0.256 0.971-0.352 1.472c-0.085 0.491-0.155 0.976-0.208 1.456-0.043 0.48-0.064 0.901-0.064 1.264 0 0.107 0.005 0.24 0.016 0.4s0.043 0.315 0.096 0.464c0.053 0.149 0.133 0.277 0.24 0.384 0.117 0.107 0.272 0.16 0.464 0.16 0.331 0 0.651-0.203 0.96-0.608 0.309-0.416 0.581-1.152 0.816-2.208h2.96l-0.64 3.024z"></path>
<path fill="#fff" style="fill: var(--color1, #fff)" d="M60.528 13.5h-3.744l-1.776-7.344-1.568 7.344h-1.44l2.16-10.16h3.824l1.68 7.44 1.584-7.44h1.472l-2.192 10.16z"></path>
<path fill="#fff" style="fill: var(--color1, #fff)" d="M50.237 13.5h-3.456l2.16-10.16h3.472l-2.176 10.16z"></path>
<path fill="#fff" style="fill: var(--color1, #fff)" d="M40.894 3.34h6.736l-0.256 1.216h-3.264l-0.672 3.088h2.736l-0.256 1.2h-2.736l-0.736 3.424h3.264l-0.24 1.232h-6.736l2.16-10.16z"></path>
<path fill="#fff" style="fill: var(--color1, #fff)" d="M39.603 4.556h-2.576l-1.904 8.944h-3.456l1.904-8.944h-2.544l0.288-1.216h8.56l-0.272 1.216z"></path>
<path fill="#fff" style="fill: var(--color1, #fff)" d="M26.123 3.18c0.917 0 1.659 0.117 2.224 0.352 0.576 0.235 1.029 0.597 1.36 1.088 0.213 0.331 0.379 0.704 0.496 1.12s0.176 0.896 0.176 1.44c0 0.469-0.043 0.939-0.128 1.408s-0.208 0.923-0.368 1.36c-0.149 0.427-0.336 0.832-0.56 1.216-0.213 0.373-0.453 0.704-0.72 0.992-0.501 0.544-1.083 0.928-1.744 1.152-0.651 0.213-1.456 0.32-2.416 0.32-0.928 0-1.675-0.096-2.24-0.288s-1.013-0.501-1.344-0.928c-0.235-0.299-0.421-0.677-0.56-1.136-0.128-0.459-0.192-1.035-0.192-1.728 0-1.184 0.208-2.24 0.624-3.168 0.427-0.939 1.029-1.68 1.808-2.224 0.469-0.331 0.992-0.576 1.568-0.736s1.248-0.24 2.016-0.24zM24.315 12.508c0.245 0 0.475-0.107 0.688-0.32 0.224-0.224 0.427-0.517 0.608-0.88 0.192-0.373 0.363-0.795 0.512-1.264 0.16-0.469 0.293-0.955 0.4-1.456s0.187-0.997 0.24-1.488c0.064-0.501 0.096-0.955 0.096-1.36 0-0.555-0.059-0.933-0.176-1.136-0.107-0.213-0.267-0.32-0.48-0.32-0.245 0-0.48 0.107-0.704 0.32s-0.437 0.501-0.64 0.864c-0.192 0.352-0.368 0.763-0.528 1.232-0.149 0.459-0.283 0.933-0.4 1.424-0.107 0.491-0.192 0.976-0.256 1.456-0.053 0.48-0.080 0.923-0.080 1.328 0 0.608 0.064 1.029 0.192 1.264 0.139 0.224 0.315 0.336 0.528 0.336z"></path>
<path fill="#fff" style="fill: var(--color1, #fff)" d="M19.562 5.756c0 0.629-0.176 1.211-0.528 1.744s-0.933 0.939-1.744 1.216l1.856 4.784h-3.568l-1.408-4.432h-0.176l-0.944 4.432h-3.456l2.16-10.16h4.208c0.491 0 0.955 0.032 1.392 0.096 0.437 0.053 0.816 0.171 1.136 0.352 0.331 0.171 0.592 0.416 0.784 0.736 0.192 0.309 0.288 0.72 0.288 1.232zM14.954 8.044c0.277 0 0.512-0.091 0.704-0.272 0.203-0.192 0.363-0.421 0.48-0.688 0.128-0.267 0.219-0.549 0.272-0.848 0.053-0.309 0.080-0.576 0.080-0.8 0-0.277-0.048-0.512-0.144-0.704-0.096-0.203-0.304-0.304-0.624-0.304h-0.72l-0.8 3.616h0.752z"></path>
<path fill="#fff" style="fill: var(--color1, #fff)" d="M5.136 9.116c0.32 0 0.587-0.133 0.8-0.4 0.224-0.267 0.405-0.592 0.544-0.976 0.149-0.384 0.256-0.784 0.32-1.2s0.096-0.779 0.096-1.088c0-0.288-0.048-0.528-0.144-0.72-0.096-0.203-0.304-0.304-0.624-0.304h-0.72l-1.008 4.688h0.736zM4.176 10.14l-0.72 3.36h-3.456l2.16-10.16h3.696c0.608 0 1.163 0.032 1.664 0.096s0.933 0.192 1.296 0.384c0.363 0.192 0.645 0.469 0.848 0.832 0.203 0.352 0.304 0.827 0.304 1.424 0 0.555-0.091 1.083-0.272 1.584-0.171 0.491-0.453 0.923-0.848 1.296-0.384 0.363-0.885 0.651-1.504 0.864s-1.371 0.32-2.256 0.32h-0.912z"></path>
</symbol>

<symbol id="icon-menu" viewBox="0 0 46 32">
<path fill="#ff6a00" style="fill: var(--color1, #ff6a00)" d="M0.518 19.006c0-1.293 1.048-2.341 2.341-2.341h40.514c1.293 0 2.341 1.048 2.341 2.341s-1.048 2.341-2.341 2.341h-40.514c-1.293 0-2.341-1.048-2.341-2.341z"></path>
<path fill="#ff6a00" style="fill: var(--color1, #ff6a00)" d="M0.518 28.917c0-1.293 1.048-2.341 2.341-2.341h40.514c1.293 0 2.341 1.048 2.341 2.341s-1.048 2.341-2.341 2.341h-40.514c-1.293 0-2.341-1.048-2.341-2.341z"></path>
<path fill="#ff6a00" style="fill: var(--color1, #ff6a00)" d="M42.015 1.104h2.002v7.24c0 0.794-0.186 1.493-0.558 2.098-0.372 0.6-0.895 1.071-1.57 1.414-0.675 0.337-1.463 0.506-2.366 0.506s-1.691-0.169-2.366-0.506c-0.675-0.342-1.2-0.813-1.577-1.414-0.372-0.605-0.558-1.305-0.558-2.098v-7.24h2.009v7.076c0 0.466 0.102 0.878 0.305 1.235s0.491 0.64 0.863 0.848c0.377 0.203 0.818 0.305 1.324 0.305s0.945-0.102 1.317-0.305c0.372-0.208 0.66-0.491 0.863-0.848 0.208-0.357 0.312-0.769 0.312-1.235v-7.076z"></path>
<path fill="#ff6a00" style="fill: var(--color1, #ff6a00)" d="M33.414 1.104v11.086h-1.801l-5.216-7.552h-0.097v7.552h-2.009v-11.086h1.801l5.216 7.552h0.097v-7.552h2.009z"></path>
<path fill="#ff6a00" style="fill: var(--color1, #ff6a00)" d="M15.601 12.19v-11.086h7.217v1.682h-5.208v2.976h4.822v1.659h-4.822v3.088h5.238v1.682h-7.247z"></path>
<path fill="#ff6a00" style="fill: var(--color1, #ff6a00)" d="M2.328 1.104h2.463l3.289 8.028h0.127l3.296-8.028h2.493v11.086h-1.972v-7.619h-0.089l-3.080 7.582h-1.443l-3.043-7.597h-0.104v7.634h-1.935v-11.086z"></path>
</symbol>

<symbol id="icon-menu_mini" viewBox="0 0 32 32">
<path stroke-linejoin="round" stroke-linecap="round" stroke-miterlimit="4" stroke-width="2.6667" d="M5.333 8h21.333M5.333 16h21.333M5.333 24h21.333"></path>
</symbol>

<symbol id="icon-menu32" viewBox="0 0 32 32">
<path fill="#ff6a00" style="fill: var(--color4, #ff6a00)" d="M1.34 19.473c0-0.849 0.688-1.536 1.536-1.536h26.587c0.849 0 1.536 0.688 1.536 1.536s-0.688 1.536-1.536 1.536h-26.587c-0.849 0-1.536-0.688-1.536-1.536z"></path>
<path fill="#ff6a00" style="fill: var(--color4, #ff6a00)" d="M1.34 25.977c0-0.849 0.688-1.536 1.536-1.536h26.587c0.849 0 1.536 0.688 1.536 1.536s-0.688 1.536-1.536 1.536h-26.587c-0.849 0-1.536-0.688-1.536-1.536z"></path>
<path fill="#ff6a00" style="fill: var(--color4, #ff6a00)" d="M28.572 7.725h1.314v4.751c0 0.521-0.122 0.98-0.366 1.377-0.244 0.394-0.588 0.703-1.030 0.928-0.443 0.221-0.96 0.332-1.553 0.332s-1.11-0.111-1.553-0.332c-0.443-0.225-0.788-0.534-1.035-0.928-0.244-0.397-0.366-0.856-0.366-1.377v-4.751h1.318v4.644c0 0.306 0.067 0.576 0.2 0.81s0.322 0.42 0.567 0.557c0.247 0.133 0.537 0.2 0.869 0.2s0.62-0.067 0.864-0.2c0.244-0.137 0.433-0.322 0.566-0.557 0.137-0.234 0.205-0.505 0.205-0.81v-4.644z"></path>
<path fill="#ff6a00" style="fill: var(--color4, #ff6a00)" d="M22.928 7.725v7.275h-1.182l-3.423-4.956h-0.064v4.956h-1.318v-7.275h1.182l3.423 4.956h0.063v-4.956h1.318z"></path>
<path fill="#ff6a00" style="fill: var(--color4, #ff6a00)" d="M11.238 15v-7.275h4.736v1.104h-3.418v1.953h3.164v1.089h-3.164v2.026h3.438v1.104h-4.756z"></path>
<path fill="#ff6a00" style="fill: var(--color4, #ff6a00)" d="M2.527 7.725h1.616l2.158 5.269h0.083l2.163-5.269h1.636v7.275h-1.294v-5h-0.059l-2.021 4.976h-0.947l-1.997-4.985h-0.068v5.010h-1.27v-7.275z"></path>
</symbol>

<symbol id="icon-minus" viewBox="0 0 32 32">
<path stroke-linejoin="round" stroke-linecap="round" stroke-miterlimit="4" stroke-width="2.6667" d="M6.667 16h18.667"></path>
</symbol>

<symbol id="icon-photo" viewBox="0 0 32 32">
<path stroke-linejoin="round" stroke-linecap="round" stroke-miterlimit="4" stroke-width="2" d="M20 10.667h0.013M15.333 28h-7.333c-1.061 0-2.078-0.421-2.828-1.172s-1.172-1.767-1.172-2.828v-16c0-1.061 0.421-2.078 1.172-2.828s1.768-1.172 2.828-1.172h16c1.061 0 2.078 0.421 2.828 1.172s1.172 1.768 1.172 2.828v6.667M4 21.333l6.667-6.667c1.237-1.191 2.763-1.191 4 0l2 2M24 29.333l4.467-4.379c0.274-0.266 0.492-0.584 0.641-0.935s0.226-0.729 0.227-1.111c0.001-0.382-0.075-0.76-0.223-1.111s-0.365-0.671-0.638-0.937c-0.557-0.545-1.305-0.851-2.084-0.852s-1.528 0.301-2.088 0.844l-0.299 0.293-0.297-0.293c-0.557-0.544-1.305-0.85-2.084-0.852s-1.528 0.301-2.087 0.843c-0.274 0.266-0.492 0.584-0.641 0.935s-0.226 0.729-0.227 1.111c-0.001 0.382 0.075 0.76 0.223 1.112s0.364 0.671 0.637 0.938l4.473 4.395z"></path>
</symbol>

<symbol id="icon-plus" viewBox="0 0 32 32">
<path stroke-linejoin="round" stroke-linecap="round" stroke-miterlimit="4" stroke-width="2.6667" d="M16 6.667v18.667M6.667 16h18.667"></path>
</symbol>

<symbol id="icon-schevron_bottom" viewBox="0 0 32 32">
<path stroke-linejoin="round" stroke-linecap="round" stroke-miterlimit="4" stroke-width="2.6667" d="M24 12l-8 8-8-8"></path>
</symbol>

<symbol id="icon-schevron_left" viewBox="0 0 32 32">
<path stroke-linejoin="round" stroke-linecap="round" stroke-miterlimit="4" stroke-width="2.6667" d="M20 8l-8 8 8 8"></path>
</symbol>

<symbol id="icon-schevron_right" viewBox="0 0 32 32">
<path stroke-linejoin="round" stroke-linecap="round" stroke-miterlimit="4" stroke-width="2.6667" d="M12 8l8 8-8 8"></path>
</symbol>

<symbol id="icon-search_24" viewBox="0 0 32 32">
<path fill="none" stroke="#eef4f6" style="stroke: var(--color1, #eef4f6)" stroke-linejoin="round" stroke-linecap="round" stroke-miterlimit="4" stroke-width="2.6667" d="M28 28l-8-8M4 13.333c0 1.226 0.241 2.439 0.71 3.572s1.157 2.161 2.023 3.028c0.867 0.867 1.896 1.554 3.028 2.023s2.346 0.71 3.572 0.71c1.226 0 2.439-0.241 3.572-0.71s2.161-1.157 3.028-2.023c0.867-0.867 1.554-1.895 2.023-3.028s0.71-2.346 0.71-3.572c0-1.226-0.241-2.439-0.71-3.572s-1.157-2.161-2.023-3.028c-0.867-0.867-1.895-1.554-3.028-2.023s-2.346-0.71-3.572-0.71c-1.226 0-2.439 0.241-3.572 0.71s-2.161 1.157-3.028 2.023c-0.867 0.867-1.554 1.896-2.023 3.028s-0.71 2.346-0.71 3.572z"></path>
</symbol>

<symbol id="icon-success" viewBox="0 0 32 32">
<path fill="#009e00" style="fill: var(--color5, #009e00)" d="M16.013 2.681c1.037 0 2.039 0.378 2.817 1.063l0.205 0.193 0.931 0.931c0.255 0.254 0.589 0.414 0.947 0.455l0.18 0.011h1.333c1.090-0 2.138 0.417 2.93 1.165s1.268 1.771 1.33 2.859l0.007 0.243v1.333c0 0.36 0.123 0.711 0.344 0.991l0.12 0.133 0.929 0.931c0.77 0.766 1.219 1.797 1.256 2.883s-0.343 2.144-1.060 2.96l-0.193 0.205-0.931 0.931c-0.254 0.255-0.414 0.589-0.455 0.947l-0.011 0.18v1.333c0 1.090-0.417 2.138-1.165 2.93s-1.771 1.268-2.859 1.33l-0.243 0.007h-1.333c-0.359 0-0.708 0.121-0.991 0.344l-0.133 0.12-0.931 0.929c-0.766 0.77-1.797 1.219-2.882 1.256s-2.144-0.343-2.96-1.060l-0.205-0.193-0.931-0.931c-0.255-0.254-0.589-0.414-0.947-0.455l-0.18-0.011h-1.333c-1.090 0-2.138-0.417-2.93-1.165s-1.268-1.771-1.33-2.859l-0.007-0.243v-1.333c-0-0.359-0.121-0.709-0.344-0.991l-0.12-0.133-0.929-0.931c-0.77-0.766-1.219-1.797-1.256-2.883s0.343-2.144 1.060-2.96l0.193-0.205 0.931-0.931c0.254-0.255 0.414-0.589 0.455-0.947l0.011-0.18v-1.333l0.007-0.243c0.060-1.046 0.502-2.034 1.243-2.775s1.728-1.183 2.775-1.243l0.243-0.007h1.333c0.36-0 0.708-0.121 0.991-0.344l0.133-0.12 0.931-0.929c0.396-0.399 0.868-0.715 1.387-0.931s1.076-0.327 1.638-0.327zM20.943 12.391c-0.25-0.25-0.589-0.39-0.943-0.39s-0.693 0.14-0.943 0.39l-4.391 4.389-1.724-1.723-0.125-0.111c-0.268-0.207-0.605-0.305-0.942-0.273s-0.65 0.191-0.874 0.445c-0.224 0.254-0.343 0.584-0.333 0.923s0.149 0.661 0.388 0.901l2.667 2.667 0.125 0.111c0.257 0.199 0.577 0.298 0.901 0.277s0.629-0.158 0.859-0.388l5.333-5.333 0.111-0.125c0.199-0.257 0.298-0.577 0.277-0.901s-0.158-0.63-0.388-0.859z"></path>
</symbol>

<symbol id="icon-super" viewBox="0 0 32 32">
<path stroke-linejoin="round" stroke-linecap="round" stroke-miterlimit="4" stroke-width="2.6667" d="M11.413 4.92c-1.456 0.603-2.779 1.486-3.893 2.6M4.92 11.413c-0.605 1.454-0.917 3.012-0.92 4.587M4.92 20.587c0.603 1.456 1.486 2.779 2.6 3.893M11.413 27.080c1.454 0.605 3.012 0.917 4.587 0.92M20.587 27.080c1.456-0.603 2.779-1.486 3.893-2.6M27.080 20.587c0.605-1.454 0.917-3.012 0.92-4.587M27.080 11.413c-0.603-1.456-1.486-2.779-2.6-3.893M20.587 4.92c-1.454-0.605-3.012-0.917-4.587-0.92M12 16l2.667 2.667 5.333-5.333"></path>
</symbol>

<symbol id="icon-telegram" viewBox="0 0 32 32">
<path stroke-linejoin="round" stroke-linecap="round" stroke-miterlimit="4" stroke-width="2.6667" d="M20 13.333l-5.333 5.333 8 8 5.333-21.333-24 9.333 5.333 2.667 2.667 8 4-5.333"></path>
</symbol>

<symbol id="icon-tiktok" viewBox="0 0 32 32">
<path  stroke-linejoin="round" stroke-linecap="round" stroke-miterlimit="4" stroke-width="2.6667" d="M28 10.556v5.379c-2.419-0.24-4.725-1.14-6.667-2.601v6c-0 1.628-0.459 3.223-1.324 4.603s-2.101 2.487-3.567 3.196c-1.466 0.709-3.101 0.991-4.72 0.814s-3.154-0.807-4.431-1.817-2.244-2.359-2.79-3.893c-0.546-1.534-0.648-3.191-0.296-4.78s1.145-3.048 2.288-4.208c1.143-1.16 2.589-1.974 4.173-2.35v5.768c-0.455 0.341-0.814 0.792-1.045 1.311s-0.325 1.089-0.274 1.655c0.051 0.566 0.246 1.109 0.566 1.579s0.755 0.849 1.263 1.103c0.508 0.254 1.073 0.374 1.641 0.349s1.119-0.196 1.603-0.495c0.483-0.299 0.882-0.716 1.159-1.212s0.422-1.055 0.422-1.623v-15.333h5.444c0.278 1.638 1.058 3.149 2.233 4.324s2.686 1.955 4.323 2.232z"></path>
</symbol>

</defs>
</svg>