<svg aria-hidden="true" style="position: absolute; width: 0; height: 0; overflow: hidden;" version="1.1" xmlns="http://www.w3.org/2000/svg" xmlns:xlink="http://www.w3.org/1999/xlink">
<defs>

<symbol id="icon-vector" viewBox="0 0 55 32">
<path  d="M50.601 3.004l-21.417 21.079c-0.467 0.462-1.098 0.722-1.755 0.722s-1.288-0.259-1.755-0.722l-21.417-21.074c-0.47-0.462-1.103-0.721-1.762-0.721s-1.292 0.259-1.762 0.721c-0.232 0.226-0.416 0.495-0.541 0.793s-0.19 0.618-0.19 0.941c0 0.323 0.065 0.643 0.19 0.941s0.31 0.568 0.541 0.793l21.413 21.074c1.41 1.385 3.308 2.161 5.285 2.161s3.874-0.776 5.285-2.161l21.413-21.074c0.232-0.226 0.417-0.496 0.543-0.794s0.191-0.619 0.191-0.943-0.065-0.645-0.191-0.943c-0.126-0.298-0.311-0.568-0.543-0.794-0.47-0.462-1.103-0.721-1.762-0.721s-1.292 0.259-1.762 0.721z"></path>
</symbol>

<symbol id="icon-burger" viewBox="0 0 44 32">
<path  stroke-linejoin="round" stroke-linecap="round" stroke-miterlimit="4" stroke-width="5" d="M4 4h36M4 16h36M4 28h36"></path>
</symbol>

<symbol id="icon-close" viewBox="0 0 32 32">
<path fill="#192b39"  style="fill: var(--color1, #192b39)" stroke-linejoin="round" stroke-linecap="round" stroke-miterlimit="4" stroke-width="2.6667" d="M24 8l-16 16"></path>
<path  stroke-linejoin="round" stroke-linecap="round" stroke-miterlimit="4" stroke-width="2.6667" d="M8 8l16 16"></path>
</symbol>

<symbol id="icon-plus" viewBox="0 0 32 32">
<path fill="#f26515" style="fill: var(--color1, #f26515)" d="M31.127 12.509v6.982h-11.636v11.636h-6.982v-11.636h-11.636v-6.982h11.636v-11.636h6.982v11.636h11.636z"></path>
</symbol>

<symbol id="icon-viber" viewBox="0 0 32 32">
<path d="M16 32c8.837 0 16-7.163 16-16s-7.163-16-16-16c-8.837 0-16 7.163-16 16s7.163 16 16 16zM11.851 9.107c2.622-0.587 5.341-0.587 7.963 0l0.283 0.063c0.738 0.165 1.415 0.531 1.957 1.057s0.928 1.193 1.113 1.926c0.665 2.619 0.665 5.362 0 7.981-0.186 0.732-0.571 1.399-1.113 1.926s-1.219 0.893-1.957 1.058l-0.283 0.062c-1.67 0.373-3.385 0.511-5.093 0.407l-2.276 2.035c-0.056 0.050-0.123 0.083-0.196 0.098s-0.149 0.009-0.219-0.016c-0.070-0.025-0.133-0.068-0.181-0.125s-0.080-0.126-0.092-0.199l-0.387-2.313c-0.695-0.192-1.326-0.565-1.83-1.080s-0.863-1.154-1.040-1.853c-0.664-2.618-0.664-5.361 0-7.98 0.186-0.733 0.571-1.399 1.113-1.926s1.219-0.893 1.957-1.058l0.282-0.062zM12.107 12.173c0.135-0.080 0.293-0.111 0.447-0.089l-0.001-0.001c0.144 0.027 0.274 0.105 0.367 0.219 0.425 0.485 0.8 1.009 1.123 1.567 0.211 0.373 0.073 0.752-0.123 0.912l-0.41 0.33c-0.211 0.16-0.183 0.473-0.183 0.473s0.607 2.304 2.883 2.885l0.009-0.005c0 0 0.305 0.028 0.473-0.177l0.327-0.413c0.153-0.205 0.533-0.327 0.907-0.125 0.557 0.324 1.082 0.701 1.567 1.125 0.242 0.203 0.299 0.501 0.131 0.817v0.006c-0.178 0.314-0.408 0.597-0.678 0.837-0.222 0.201-0.505 0.323-0.803 0.345-0.095 0-0.188-0.013-0.29-0.045v-0.005c-0.351-0.103-0.935-0.351-1.898-0.875-0.842-0.466-1.621-1.037-2.318-1.7l-0.023-0.020-0.019-0.023-0.031-0.023-0.020-0.029c-0.661-0.695-1.23-1.472-1.692-2.312-0.358-0.599-0.652-1.234-0.877-1.895l-0.015-0.008c-0.039-0.128-0.051-0.263-0.035-0.396 0.029-0.225 0.137-0.459 0.337-0.689 0.24-0.271 0.522-0.503 0.835-0.686l0.011 0.001zM16.105 11.205c0.039-0.039 0.085-0.069 0.135-0.090s0.105-0.032 0.16-0.032c1.255 0 2.343 0.419 3.201 1.24l0.009 0.008c0.437 0.441 0.778 0.967 1.003 1.545 0.224 0.576 0.327 1.191 0.301 1.809-0.009 0.108-0.059 0.208-0.14 0.279s-0.186 0.109-0.294 0.104c-0.108-0.005-0.21-0.051-0.284-0.129s-0.116-0.182-0.115-0.29c0.021-0.502-0.062-1.003-0.244-1.471-0.183-0.47-0.461-0.898-0.815-1.257-0.692-0.66-1.567-1.005-2.621-1.005-0.082 0-0.163-0.024-0.232-0.070s-0.122-0.111-0.154-0.187-0.040-0.16-0.024-0.241c0.016-0.081 0.056-0.155 0.114-0.213zM16.076 12.575c0.039-0.039 0.085-0.069 0.135-0.090s0.105-0.032 0.159-0.032h0.042l0.014 0.001c0.932 0.062 1.706 0.382 2.27 0.987v0.002c0.552 0.595 0.83 1.341 0.81 2.205-0.008 0.107-0.057 0.206-0.136 0.278s-0.183 0.111-0.29 0.108c-0.107-0.002-0.209-0.046-0.285-0.121s-0.12-0.177-0.123-0.284c0.016-0.658-0.19-1.191-0.587-1.619-0.387-0.415-0.941-0.669-1.701-0.723h-0.015c-0.082 0-0.163-0.024-0.232-0.070s-0.122-0.111-0.153-0.187c-0.032-0.076-0.040-0.16-0.024-0.241s0.056-0.155 0.114-0.213zM16.189 13.868c0.053-0.018 0.11-0.024 0.166-0.019 0.498 0.027 0.937 0.185 1.26 0.51 0.32 0.325 0.477 0.767 0.504 1.267 0.004 0.055-0.003 0.111-0.021 0.163s-0.046 0.101-0.082 0.143c-0.037 0.042-0.081 0.075-0.131 0.1s-0.104 0.038-0.159 0.041-0.111-0.005-0.163-0.024c-0.052-0.019-0.1-0.048-0.141-0.085s-0.074-0.083-0.097-0.133c-0.023-0.050-0.036-0.105-0.038-0.16-0.019-0.355-0.124-0.583-0.265-0.725s-0.363-0.246-0.711-0.264c-0.098-0.002-0.193-0.039-0.266-0.104s-0.122-0.154-0.137-0.251c-0.015-0.097 0.006-0.197 0.057-0.28s0.131-0.147 0.224-0.178l-0.001 0.001z"></path>
</symbol>

<symbol id="icon-messager" viewBox="0 0 32 32">
<path  d="M16 32c-8.837 0-16-7.163-16-16s7.163-16 16-16c8.837 0 16 7.163 16 16s-7.163 16-16 16zM24 16.083c0-4.644-3.639-8.083-8.333-8.083-4.695 0-8.333 3.439-8.333 8.083 0 2.43 0.996 4.529 2.617 5.979 0.068 0.060 0.122 0.133 0.161 0.214s0.060 0.17 0.063 0.26l0.045 1.483c0.003 0.109 0.033 0.216 0.088 0.311s0.131 0.175 0.223 0.233c0.092 0.058 0.198 0.093 0.307 0.101s0.218-0.011 0.318-0.055l1.653-0.73c0.14-0.062 0.298-0.073 0.445-0.033 0.787 0.215 1.598 0.322 2.413 0.32 4.694 0 8.333-3.439 8.333-8.083zM11.237 18.973c-0.351 0.267-0.809-0.153-0.574-0.526l2.447-3.883c0.092-0.146 0.213-0.271 0.356-0.368s0.304-0.163 0.474-0.194c0.17-0.031 0.344-0.027 0.512 0.012s0.326 0.113 0.464 0.217l1.947 1.459c0.087 0.066 0.193 0.101 0.301 0.101s0.215-0.035 0.301-0.101l2.629-1.997c0.351-0.266 0.809 0.154 0.574 0.527l-2.447 3.883c-0.092 0.146-0.214 0.272-0.357 0.369s-0.305 0.163-0.475 0.195c-0.17 0.031-0.345 0.027-0.513-0.013s-0.326-0.114-0.465-0.217l-1.947-1.459c-0.087-0.065-0.192-0.101-0.301-0.101s-0.214 0.035-0.301 0.101l-2.629 1.995z"></path>
</symbol>

<symbol id="icon-facebook" viewBox="0 0 32 32">
<path  d="M14.439 0.037c-3.032 0.306-5.921 1.463-8.315 3.32-0.732 0.569-1.976 1.794-2.582 2.545-1.744 2.163-2.882 4.689-3.37 7.497-0.181 1.075-0.231 3.445-0.088 4.539 0.269 2.013 0.763 3.633 1.644 5.365 0.738 1.457 1.601 2.651 2.801 3.883 2.588 2.657 5.771 4.239 9.535 4.733 1.088 0.138 3.457 0.094 4.539-0.094 1.638-0.281 3.032-0.732 4.495-1.451 1.551-0.763 2.801-1.644 4.089-2.901 2.482-2.42 4.045-5.402 4.639-8.872 0.188-1.088 0.231-3.383 0.094-4.539-0.575-4.696-3.17-8.872-7.134-11.48-2.057-1.351-4.345-2.188-6.784-2.495-0.707-0.088-2.914-0.119-3.564-0.050zM19.809 8.147c0.125 0.113 0.131 0.181 0.131 1.194 0 0.825-0.019 1.1-0.088 1.194-0.081 0.106-0.194 0.125-1.050 0.15-1.144 0.044-1.388 0.138-1.626 0.619-0.131 0.263-0.144 0.394-0.163 1.519l-0.025 1.238h1.394c1.207 0 1.407 0.013 1.507 0.106 0.144 0.131 0.144 0.3-0.013 1.551-0.069 0.55-0.125 1.019-0.125 1.044 0 0.031-0.056 0.106-0.125 0.175-0.119 0.119-0.206 0.125-1.375 0.125h-1.25v3.358c0 2.013-0.025 3.401-0.062 3.458-0.081 0.131-2.551 0.138-2.707 0.006-0.094-0.075-0.106-0.394-0.106-3.451v-3.37h-0.925c-1.3 0-1.2 0.119-1.2-1.482 0-1.113 0.013-1.307 0.106-1.407 0.088-0.1 0.213-0.113 1.063-0.113h0.957v-1.276c0-1.513 0.094-2.176 0.4-2.82 0.413-0.869 0.988-1.394 1.876-1.707 0.556-0.194 1.125-0.25 2.326-0.238 0.838 0.006 0.963 0.019 1.082 0.125z"></path>
</symbol>

<symbol id="icon-instagram" viewBox="0 0 32 32">
<path  d="M14.442 0.030c-3.032 0.306-5.921 1.463-8.315 3.32-0.732 0.569-1.976 1.795-2.582 2.545-1.744 2.163-2.882 4.689-3.37 7.497-0.181 1.075-0.231 3.445-0.088 4.539 0.269 2.013 0.763 3.633 1.644 5.365 0.738 1.457 1.601 2.651 2.801 3.883 2.588 2.657 5.771 4.239 9.535 4.733 1.088 0.138 3.457 0.094 4.539-0.094 1.638-0.281 3.032-0.732 4.495-1.451 1.551-0.763 2.801-1.644 4.089-2.901 2.482-2.42 4.045-5.402 4.639-8.872 0.188-1.088 0.231-3.383 0.094-4.539-0.575-4.696-3.17-8.872-7.134-11.48-2.057-1.351-4.345-2.188-6.784-2.495-0.706-0.088-2.913-0.119-3.564-0.050zM20.319 8.14c1.432 0.394 2.545 1.301 3.157 2.57 0.513 1.063 0.5 0.938 0.5 5.283 0 4.308 0.012 4.202-0.469 5.221-0.469 1.013-1.213 1.763-2.22 2.251-1.063 0.513-0.938 0.5-5.283 0.5s-4.22 0.012-5.283-0.5c-1.007-0.488-1.751-1.238-2.22-2.251-0.481-1.019-0.469-0.913-0.469-5.221s-0.012-4.202 0.469-5.221c0.694-1.494 2.138-2.539 3.745-2.72 0.263-0.025 2.094-0.044 4.070-0.037 3.226 0.012 3.639 0.025 4.001 0.125z"></path>
<path  d="M12.187 9.631c-1.2 0.2-2.275 1.244-2.531 2.475-0.131 0.606-0.131 7.169-0.006 7.769 0.138 0.656 0.388 1.106 0.875 1.6 0.494 0.488 0.944 0.738 1.6 0.875 0.6 0.125 7.163 0.125 7.763 0 0.644-0.137 1.087-0.387 1.587-0.881 0.494-0.487 0.731-0.919 0.875-1.581 0.125-0.613 0.125-7.169-0.006-7.781-0.263-1.256-1.331-2.281-2.594-2.481-0.5-0.075-7.075-0.069-7.562 0.006zM20.681 11.044c0.288 0.213 0.444 0.506 0.444 0.831 0 0.925-1.219 1.313-1.75 0.563-0.15-0.213-0.225-0.594-0.162-0.838 0.050-0.212 0.337-0.537 0.569-0.637 0.244-0.113 0.688-0.075 0.9 0.081zM16.581 11.944c2.163 0.331 3.769 2.4 3.488 4.494-0.256 1.931-1.65 3.35-3.556 3.625-1.813 0.269-3.688-0.869-4.35-2.631-0.894-2.375 0.606-5.006 3.119-5.463 0.563-0.106 0.75-0.106 1.3-0.025z"></path>
<path d="M15.313 13.537c-1.875 0.506-2.5 2.912-1.113 4.275 1.481 1.456 3.969 0.65 4.319-1.4 0.313-1.831-1.394-3.363-3.206-2.875z"></path>
</symbol>

<symbol id="icon-WhatsApp" viewBox="0 0 32 32">
<path d="M16 32c8.837 0 16-7.163 16-16s-7.163-16-16-16c-8.837 0-16 7.163-16 16s7.163 16 16 16zM9.86 10.409c1.305-1.623 3.314-2.743 5.44-3.028 0.327-0.041 0.98-0.058 1.457-0.041 3.733 0.184 6.771 2.685 7.717 6.357 0.159 0.611 0.193 0.962 0.193 1.957 0 1.38-0.151 2.158-0.645 3.321-0.795 1.882-2.427 3.521-4.302 4.324-2.327 0.996-4.747 0.929-7.157-0.192l-0.695-0.327-1.607 0.385c-0.887 0.209-1.632 0.36-1.657 0.343-0.025-0.025 0.109-0.778 0.293-1.665l0.343-1.614-0.385-0.862c-0.477-1.053-0.67-1.715-0.795-2.719-0.277-2.116 0.418-4.525 1.8-6.24zM14.421 13.279c0-0.209-0.929-2.25-1.113-2.459-0.419-0.451-1.138-0.092-1.808 0.903-0.427 0.653-0.553 1.196-0.427 1.966 0.217 1.347 0.871 2.484 2.26 3.923 1.992 2.058 3.993 3.145 5.784 3.145 1.004 0 1.423-0.167 2.075-0.82 0.871-0.878 1.030-1.455 0.486-1.815-0.26-0.167-2.151-0.711-2.478-0.711-0.193 0-0.36 0.109-0.72 0.46-0.418 0.41-0.51 0.46-0.82 0.46-0.553 0-1.465-0.593-2.687-1.756-0.318-0.301-0.737-0.761-0.938-1.037-0.46-0.611-0.477-0.887-0.092-1.397 0.343-0.443 0.477-0.694 0.477-0.861z"></path>
</symbol>

<symbol id="icon-telegram" viewBox="0 0 32 32">
<path d="M16 0c-8.839 0-16 7.162-16 16s7.162 16 16 16c8.839 0 16-7.162 16-16s-7.162-16-16-16zM23.859 10.961l-2.627 12.375c-0.193 0.878-0.716 1.091-1.445 0.677l-4-2.948-1.929 1.858c-0.213 0.213-0.393 0.393-0.807 0.393l0.285-4.071 7.413-6.697c0.323-0.284-0.071-0.445-0.498-0.161l-9.161 5.767-3.948-1.232c-0.858-0.271-0.877-0.858 0.18-1.271l15.427-5.949c0.716-0.258 1.342 0.175 1.109 1.259l0.001 0.001z"></path>
</symbol>

<symbol id="icon-exit" viewBox="0 0 32 32">
<path d="M24 20v-4h-10v-4h10v-4l6 6zM22 18v8h-10v6l-12-6v-26h22v10h-2v-8h-16l8 4v18h8v-6z"></path>
</symbol>

<symbol id="icon-arrow" viewBox="0 0 32 32">
<path  d="M32 23.389l-0.021-20.213c0-1.41-0.976-2.376-2.499-2.376h-21.285c-1.44 0-2.435 1.027-2.435 2.235 0 1.187 1.080 2.174 2.373 2.174h7.603l8.979-0.283-3.856 3.222-20.096 19.125c-0.488 0.483-0.763 1.048-0.763 1.611 0 1.187 1.144 2.315 2.435 2.315 0.592 0 1.186-0.242 1.696-0.704l20.117-19.126 3.432-3.664-0.36 8.173v7.571c0 1.248 1.037 2.294 2.33 2.294 0.309-0 0.615-0.061 0.9-0.18s0.545-0.292 0.763-0.511c0.218-0.219 0.391-0.478 0.509-0.764s0.178-0.592 0.178-0.901z"></path>
</symbol>

<symbol id="snowflake" viewBox="0 0 32 32">
<path fill="none" stroke="#f26515" style="stroke: var(--color1, #f26515)" stroke-linejoin="round" stroke-linecap="round" stroke-miterlimit="4" stroke-width="3.2" d="M16 16l10.667-6M16 16v12M16 16l-10.667-6M16 16l10.667 6M16 16v-12M16 16l-10.667 6"></path>
</symbol>

<symbol id="icon-edit" viewBox="0 0 32 32">
<path stroke-linejoin="round" stroke-linecap="round" stroke-miterlimit="4" stroke-width="2" d="M14.667 5.333h-9.333c-0.707 0-1.386 0.281-1.886 0.781s-0.781 1.178-0.781 1.886v18.667c0 0.707 0.281 1.386 0.781 1.886s1.178 0.781 1.886 0.781h18.667c0.707 0 1.386-0.281 1.886-0.781s0.781-1.178 0.781-1.886v-9.333"></path>
<path stroke-linejoin="round" stroke-linecap="round" stroke-miterlimit="4" stroke-width="2" d="M24.667 3.333c0.53-0.53 1.25-0.828 2-0.828s1.47 0.298 2 0.828 0.828 1.25 0.828 2c0 0.75-0.298 1.47-0.828 2l-12.667 12.667-5.333 1.333 1.333-5.333 12.667-12.667z"></path>
</symbol>

<symbol id="icon-delete" viewBox="0 0 32 32">
<path stroke-linejoin="round" stroke-linecap="round" stroke-miterlimit="4" stroke-width="2" d="M4 8h24"></path>
<path stroke-linejoin="round" stroke-linecap="round" stroke-miterlimit="4" stroke-width="2" d="M25.333 8v18.667c0 0.707-0.281 1.386-0.781 1.886s-1.178 0.781-1.886 0.781h-13.333c-0.707 0-1.386-0.281-1.886-0.781s-0.781-1.178-0.781-1.886v-18.667M10.667 8v-2.667c0-0.707 0.281-1.386 0.781-1.886s1.178-0.781 1.886-0.781h5.333c0.707 0 1.386 0.281 1.886 0.781s0.781 1.178 0.781 1.886v2.667"></path>
</symbol>

<symbol id="icon-checkMark" viewBox="0 0 45 32">
<path stroke-linejoin="round" stroke-linecap="round" stroke-miterlimit="4" stroke-width="6.4" d="M39.466 3.2l-23.467 23.467-10.667-10.667"></path>
</symbol>

<symbol id="icon-target" viewBox="0 0 32 32">
<path fill="none" stroke="#f26515" style="stroke: var(--color1, #f26515)" stroke-linejoin="round" stroke-linecap="round" stroke-miterlimit="4" stroke-width="2" d="M16 29.333c7.364 0 13.333-5.97 13.333-13.333s-5.97-13.333-13.333-13.333c-7.364 0-13.333 5.97-13.333 13.333s5.97 13.333 13.333 13.333z"></path>
<path fill="none" stroke="#f26515" style="stroke: var(--color1, #f26515)" stroke-linejoin="round" stroke-linecap="round" stroke-miterlimit="4" stroke-width="2" d="M16 24c4.418 0 8-3.582 8-8s-3.582-8-8-8c-4.418 0-8 3.582-8 8s3.582 8 8 8z"></path>
<path fill="none" stroke="#f26515" style="stroke: var(--color1, #f26515)" stroke-linejoin="round" stroke-linecap="round" stroke-miterlimit="4" stroke-width="2" d="M16 18.667c1.473 0 2.667-1.194 2.667-2.667s-1.194-2.667-2.667-2.667-2.667 1.194-2.667 2.667c0 1.473 1.194 2.667 2.667 2.667z"></path>
</symbol>

<symbol id="telegram-outline" viewBox="0 0 32 32">
<path fill="none" stroke="#f26515" style="stroke: var(--color1, #f26515)" stroke-linejoin="round" stroke-linecap="round" stroke-miterlimit="4" stroke-width="1.3333" d="M28 6.667l-25.333 10 9.333 1.333M28 6.667l-3.333 20-12.667-8.667M28 6.667l-16 11.333M12 18v7.333l4.332-4.369"></path>
</symbol>

<symbol id="phone-outline" viewBox="0 0 32 32">
<path fill="none" stroke="#f26515" style="stroke: var(--color1, #f26515)" stroke-linejoin="round" stroke-linecap="round" stroke-miterlimit="4" stroke-width="1.3333" d="M29.334 22.56v4c0.002 0.371-0.075 0.739-0.223 1.079s-0.367 0.646-0.641 0.897c-0.274 0.251-0.597 0.442-0.948 0.561s-0.725 0.163-1.094 0.13c-4.103-0.446-8.044-1.848-11.507-4.093-3.222-2.047-5.953-4.779-8-8-2.253-3.478-3.656-7.439-4.093-11.56-0.033-0.369 0.010-0.74 0.129-1.091s0.308-0.673 0.558-0.947c0.25-0.273 0.553-0.492 0.892-0.641s0.705-0.227 1.075-0.227h4c0.647-0.006 1.274 0.223 1.765 0.645s0.811 1.008 0.902 1.649c0.169 1.28 0.482 2.537 0.933 3.747 0.179 0.477 0.218 0.996 0.112 1.495s-0.353 0.956-0.712 1.319l-1.693 1.693c1.898 3.338 4.662 6.102 8 8l1.693-1.693c0.363-0.359 0.82-0.606 1.319-0.712s1.017-0.068 1.495 0.112c1.21 0.451 2.467 0.765 3.747 0.933 0.648 0.091 1.239 0.418 1.662 0.917s0.647 1.136 0.631 1.79z"></path>
</symbol>

<symbol id="map-pin-outline" viewBox="0 0 32 32">
<path fill="none" stroke="#f26515" style="stroke: var(--color1, #f26515)" stroke-linejoin="round" stroke-linecap="round" stroke-miterlimit="4" stroke-width="1.3333" d="M28 13.333c0 9.333-12 17.333-12 17.333s-12-8-12-17.333c0-3.183 1.264-6.235 3.515-8.485s5.303-3.515 8.485-3.515c3.183 0 6.235 1.264 8.485 3.515s3.515 5.303 3.515 8.485z"></path>
<path fill="none" stroke="#f26515" style="stroke: var(--color1, #f26515)" stroke-linejoin="round" stroke-linecap="round" stroke-miterlimit="4" stroke-width="1.3333" d="M16 17.333c2.209 0 4-1.791 4-4s-1.791-4-4-4-4 1.791-4 4c0 2.209 1.791 4 4 4z"></path>
</symbol>

<symbol id="mail-outline" viewBox="0 0 32 32">
<path fill="none" stroke="#f26515" style="stroke: var(--color1, #f26515)" stroke-linejoin="round" stroke-linecap="round" stroke-miterlimit="4" stroke-width="1.3333" d="M5.333 5.333h21.333c1.467 0 2.667 1.2 2.667 2.667v16c0 1.467-1.2 2.667-2.667 2.667h-21.333c-1.467 0-2.667-1.2-2.667-2.667v-16c0-1.467 1.2-2.667 2.667-2.667z"></path>
<path fill="none" stroke="#f26515" style="stroke: var(--color1, #f26515)" stroke-linejoin="round" stroke-linecap="round" stroke-miterlimit="4" stroke-width="1.3333" d="M29.333 8l-13.333 9.333-13.333-9.333"></path>
</symbol>

<symbol id="instagram-outline" viewBox="0 0 32 32">
<path fill="none" stroke="#f26515" style="stroke: var(--color1, #f26515)" stroke-linejoin="round" stroke-linecap="round" stroke-miterlimit="4" stroke-width="1.3333" d="M22.667 2.667h-13.333c-3.682 0-6.667 2.985-6.667 6.667v13.333c0 3.682 2.985 6.667 6.667 6.667h13.333c3.682 0 6.667-2.985 6.667-6.667v-13.333c0-3.682-2.985-6.667-6.667-6.667z"></path>
<path fill="none" stroke="#f26515" style="stroke: var(--color1, #f26515)" stroke-linejoin="round" stroke-linecap="round" stroke-miterlimit="4" stroke-width="1.3333" d="M21.333 15.16c0.165 1.11-0.025 2.243-0.542 3.239s-1.334 1.803-2.336 2.307c-1.002 0.504-2.137 0.68-3.245 0.502s-2.131-0.701-2.924-1.494c-0.793-0.793-1.316-1.816-1.494-2.924s-0.003-2.243 0.502-3.245c0.504-1.002 1.312-1.819 2.308-2.336s2.129-0.706 3.239-0.542c1.132 0.168 2.18 0.695 2.989 1.504s1.337 1.857 1.504 2.989z"></path>
<path fill="none" stroke="#f26515" style="stroke: var(--color1, #f26515)" stroke-linejoin="round" stroke-linecap="round" stroke-miterlimit="4" stroke-width="1.3333" d="M23.333 8.667h0.013"></path>
</symbol>

</defs>
</svg>