<svg aria-hidden="true" style="position: absolute; width: 0; height: 0; overflow: hidden;" version="1.1" xmlns="http://www.w3.org/2000/svg" xmlns:xlink="http://www.w3.org/1999/xlink">
<defs>

<symbol id="icon-exit" viewBox="0 0 32 32">
<path d="M24 20v-4h-10v-4h10v-4l6 6zM22 18v8h-10v6l-12-6v-26h22v10h-2v-8h-16l8 4v18h8v-6z"></path>
</symbol>

<symbol id="icon-delete" viewBox="0 0 32 32">
<path stroke-linejoin="round" stroke-linecap="round" stroke-miterlimit="4" stroke-width="1.5" d="M5.336 9.333h21.333M13.336 14.667v8M18.669 14.667v8M6.669 9.333l1.333 16c0 0.707 0.281 1.386 0.781 1.886s1.178 0.781 1.886 0.781h10.667c0.707 0 1.386-0.281 1.886-0.781s0.781-1.178 0.781-1.886l1.333-16M12.003 9.333v-4c0-0.354 0.14-0.693 0.39-0.943s0.589-0.391 0.943-0.391h5.333c0.354 0 0.693 0.14 0.943 0.391s0.39 0.589 0.39 0.943v4"></path>
</symbol>

<symbol id="icon-edit" viewBox="0 0 32 32">
<path stroke-linejoin="round" stroke-linecap="round" stroke-miterlimit="4" stroke-width="1.5" d="M9.336 9.333h-1.333c-0.707 0-1.386 0.281-1.886 0.781s-0.781 1.178-0.781 1.886v12c0 0.707 0.281 1.386 0.781 1.886s1.178 0.781 1.886 0.781h12c0.707 0 1.386-0.281 1.886-0.781s0.781-1.178 0.781-1.886v-1.333M21.336 6.667l4 4M27.183 8.78c0.525-0.525 0.82-1.237 0.82-1.98s-0.295-1.455-0.82-1.98c-0.525-0.525-1.237-0.82-1.98-0.82s-1.455 0.295-1.98 0.82l-11.22 11.18v4h4l11.18-11.22z"></path>
</symbol>

<symbol id="icon-gluten-free" viewBox="0 0 68 32">
<path fill="#eeeff2" style="fill: var(--color1, #eeeff2)" d="M0.471 0.471h66.824v31.059h-66.824v-31.059z"></path>
<path fill="none" stroke="#141517" style="stroke: var(--color2, #141517)" stroke-linejoin="miter" stroke-linecap="butt" stroke-miterlimit="4" stroke-width="0.9412" d="M0.471 0.471h66.824v31.059h-66.824v-31.059z"></path>
<path fill="#141517" style="fill: var(--color2, #141517)" d="M42.158 27.294v-9.459h6.158v1.435h-4.444v2.539h4.114v1.416h-4.114v2.635h4.469v1.435h-6.184z"></path>
<path fill="#141517" style="fill: var(--color2, #141517)" d="M34.743 27.294v-9.459h6.158v1.435h-4.444v2.539h4.114v1.416h-4.114v2.635h4.469v1.435h-6.184z"></path>
<path fill="#141517" style="fill: var(--color2, #141517)" d="M26.769 27.294v-9.459h3.549c0.728 0 1.337 0.127 1.828 0.381 0.495 0.254 0.87 0.61 1.124 1.067 0.254 0.453 0.381 0.98 0.381 1.581 0 0.605-0.129 1.13-0.387 1.575-0.254 0.444-0.631 0.787-1.13 1.028s-1.113 0.362-1.841 0.362h-2.52v-1.416h2.285c0.427 0 0.777-0.059 1.048-0.178 0.275-0.119 0.476-0.292 0.603-0.521 0.131-0.233 0.197-0.516 0.197-0.851s-0.066-0.62-0.197-0.857c-0.131-0.241-0.332-0.423-0.603-0.546-0.271-0.127-0.622-0.19-1.054-0.19h-1.568v8.025h-1.714zM32.083 27.294l-2.292-4.292h1.866l2.343 4.292h-1.917z"></path>
<path fill="#141517" style="fill: var(--color2, #141517)" d="M19.633 27.294v-9.459h6.069v1.435h-4.355v2.838h3.93v1.416h-3.93v3.771h-1.714z"></path>
<path fill="#141517" style="fill: var(--color2, #141517)" d="M58.188 4.833v9.459h-1.536l-4.45-6.444h-0.082v6.444h-1.714v-9.459h1.536l4.45 6.444h0.083v-6.444h1.714z"></path>
<path fill="#141517" style="fill: var(--color2, #141517)" d="M42.989 14.292v-9.459h6.158v1.435h-4.444v2.539h4.114v1.416h-4.114v2.635h4.469v1.435h-6.184z"></path>
<path fill="#141517" style="fill: var(--color2, #141517)" d="M34.489 6.268v-1.435h7.542v1.435h-2.92v8.025h-1.695v-8.025h-2.927z"></path>
<path fill="#141517" style="fill: var(--color2, #141517)" d="M31.816 4.833h1.708v6.177c0 0.677-0.159 1.274-0.476 1.79-0.317 0.512-0.764 0.914-1.34 1.206-0.576 0.288-1.249 0.432-2.019 0.432s-1.443-0.144-2.019-0.432c-0.576-0.292-1.024-0.694-1.346-1.206-0.317-0.516-0.476-1.113-0.476-1.79v-6.177h1.714v6.037c0 0.398 0.087 0.749 0.26 1.054s0.419 0.546 0.736 0.724c0.322 0.174 0.698 0.26 1.13 0.26s0.806-0.087 1.124-0.26c0.317-0.178 0.563-0.419 0.736-0.724 0.178-0.305 0.267-0.656 0.267-1.054v-6.037z"></path>
<path fill="#141517" style="fill: var(--color2, #141517)" d="M18.979 14.292v-9.459h1.714v8.025h4.171v1.435h-5.885z"></path>
<path fill="#141517" style="fill: var(--color2, #141517)" d="M13.792 14.419c-0.868 0-1.632-0.197-2.292-0.59-0.656-0.394-1.168-0.952-1.536-1.676s-0.552-1.583-0.552-2.578c0-1.016 0.188-1.888 0.565-2.616 0.381-0.728 0.897-1.285 1.549-1.67 0.652-0.389 1.39-0.584 2.216-0.584 0.525 0 1.012 0.076 1.46 0.229 0.453 0.152 0.855 0.37 1.206 0.654 0.351 0.279 0.639 0.612 0.863 0.997 0.229 0.385 0.381 0.808 0.457 1.27h-1.746c-0.076-0.25-0.182-0.474-0.317-0.673-0.131-0.199-0.292-0.368-0.483-0.508-0.186-0.144-0.398-0.252-0.635-0.324s-0.499-0.108-0.787-0.108c-0.504 0-0.954 0.129-1.352 0.387-0.398 0.254-0.711 0.629-0.94 1.124-0.224 0.491-0.336 1.092-0.336 1.803 0 0.715 0.112 1.32 0.336 1.816s0.537 0.872 0.94 1.13c0.402 0.254 0.868 0.381 1.397 0.381 0.478 0 0.893-0.091 1.244-0.273 0.351-0.186 0.622-0.449 0.813-0.787s0.286-0.739 0.286-1.2l0.394 0.063h-2.571v-1.34h3.841v1.13c0 0.813-0.171 1.513-0.514 2.101s-0.819 1.043-1.428 1.365c-0.605 0.317-1.297 0.476-2.076 0.476z"></path>
</symbol>

<symbol id="icon-vegan" viewBox="0 0 68 32">
<path fill="#dad200" style="fill: var(--color3, #dad200)" d="M0 0h67.765v32h-67.765v-32z"></path>
<path fill="none" stroke="#003c00" style="stroke: var(--color4, #003c00)" stroke-linejoin="round" stroke-linecap="round" stroke-miterlimit="4" stroke-width="1.8824" d="M43.783 27.294c0.67-5.674 3.244-10.151 8.93-12.866M46.065 8.191c-2.643 2.159-3.703 5.151-3.712 8.473 0 1.329 0 3.986 2.821 6.644h4.251c3.855 0 7.182-0.844 9.761-2.773M61.865 17.746c1.727-2.487 2.803-5.892 3.076-10.383v-2.657h-5.662c-4.038 0-7.219 0.538-9.678 1.486"></path>
<path fill="#003c00" style="fill: var(--color4, #003c00)" d="M40.471 11.412v8.756h-1.422l-4.119-5.964h-0.076v5.964h-1.587v-8.756h1.422l4.119 5.964h0.076v-5.964h1.587z"></path>
<path fill="#003c00" style="fill: var(--color4, #003c00)" d="M26.133 20.167h-1.698l3.091-8.756h1.951l3.085 8.756h-1.692l-2.339-6.957h-0.070l-2.327 6.957zM26.191 16.736h4.613v1.269h-4.613v-1.269z"></path>
<path fill="#003c00" style="fill: var(--color4, #003c00)" d="M20.474 20.285c-0.803 0-1.51-0.182-2.121-0.546-0.607-0.364-1.081-0.881-1.422-1.551s-0.511-1.465-0.511-2.386c0-0.94 0.174-1.747 0.523-2.421 0.353-0.674 0.831-1.189 1.434-1.545 0.603-0.36 1.287-0.541 2.051-0.541 0.486 0 0.936 0.070 1.352 0.212 0.419 0.141 0.791 0.343 1.117 0.605 0.325 0.259 0.592 0.566 0.799 0.923 0.212 0.356 0.353 0.748 0.423 1.175h-1.616c-0.070-0.231-0.168-0.439-0.294-0.623-0.121-0.184-0.27-0.341-0.447-0.47-0.172-0.133-0.368-0.233-0.588-0.3s-0.462-0.1-0.729-0.1c-0.466 0-0.883 0.12-1.252 0.358-0.368 0.235-0.658 0.582-0.87 1.040-0.208 0.454-0.311 1.011-0.311 1.669 0 0.662 0.104 1.222 0.311 1.681s0.497 0.807 0.87 1.046c0.372 0.235 0.803 0.353 1.293 0.353 0.443 0 0.827-0.084 1.152-0.253 0.325-0.172 0.576-0.415 0.752-0.729s0.264-0.684 0.264-1.111l0.364 0.059h-2.38v-1.24h3.555v1.046c0 0.752-0.159 1.401-0.476 1.945s-0.758 0.966-1.322 1.263c-0.56 0.294-1.201 0.441-1.921 0.441z"></path>
<path fill="#003c00" style="fill: var(--color4, #003c00)" d="M9.773 20.167v-8.756h5.7v1.328h-4.113v2.351h3.808v1.31h-3.808v2.439h4.137v1.328h-5.723z"></path>
<path fill="#003c00" style="fill: var(--color4, #003c00)" d="M2.686 11.412l2.274 6.887h0.094l2.274-6.887h1.739l-3.085 8.756h-1.951l-3.091-8.756h1.745z"></path>
</symbol>

</defs>
</svg>